<svg width="145" height="43" viewBox="0 0 145 43" fill="none" xmlns="http://www.w3.org/2000/svg">
<path d="M4.11161 0.660011V10.6936H16.4287V0.660011H19.5394V23.9946H16.4287V13.3091H4.11161V23.9946H1.00092V0.660011H4.11161Z" fill="#595438"/>
<path d="M48.4597 0.660011V3.27546H35.4237V10.6936H47.5768V13.3091H35.4237V21.3818H48.5581V23.9973H32.313V0.662733H48.4597V0.660011Z" fill="#595438"/>
<path d="M63.2643 0.660011L75.5813 19.5818H75.6469V0.660011H78.5964V23.9946H75.1905L62.9718 5.2691H62.9062V23.9946H59.9595V0.660011H63.267H63.2643Z" fill="#595438"/>
<path d="M94.415 0.660011V12.2945L106.273 0.660011H110.302L100.442 10.0718L110.696 23.9946H106.765L98.313 12.1964L94.415 15.8236V23.9946H91.3043V0.660011H94.415Z" fill="#595438"/>
<path d="M120.208 7.73454C120.678 6.26454 121.381 4.96091 122.321 3.82909C123.259 2.69728 124.429 1.79182 125.825 1.11545C127.222 0.441817 128.849 0.103638 130.705 0.103638C132.561 0.103638 134.187 0.441817 135.584 1.11545C136.981 1.79182 138.151 2.69455 139.088 3.82909C140.026 4.96091 140.731 6.26454 141.201 7.73454C141.671 9.20454 141.907 10.7373 141.907 12.3273C141.907 13.9173 141.671 15.4473 141.201 16.92C140.731 18.39 140.026 19.6936 139.088 20.8255C138.148 21.9573 136.981 22.8573 135.584 23.5227C134.187 24.1882 132.558 24.5182 130.705 24.5182C128.851 24.5182 127.222 24.1855 125.825 23.5227C124.429 22.8573 123.259 21.96 122.321 20.8255C121.381 19.6936 120.678 18.39 120.208 16.92C119.738 15.45 119.503 13.92 119.503 12.3273C119.503 10.7345 119.738 9.20727 120.208 7.73454ZM123.076 15.8073C123.382 16.95 123.863 17.9809 124.516 18.8945C125.172 19.8109 126.011 20.5445 127.039 21.1009C128.064 21.6573 129.289 21.9355 130.707 21.9355C132.126 21.9355 133.351 21.6573 134.376 21.1009C135.401 20.5445 136.243 19.8109 136.899 18.8945C137.555 17.9782 138.033 16.95 138.339 15.8073C138.646 14.6645 138.799 13.5027 138.799 12.3273C138.799 11.1518 138.646 9.99 138.339 8.84727C138.033 7.70455 137.552 6.67364 136.899 5.76C136.243 4.84364 135.404 4.11 134.376 3.55364C133.348 2.99727 132.126 2.71909 130.707 2.71909C129.289 2.71909 128.064 2.99727 127.039 3.55364C126.011 4.11 125.172 4.84364 124.516 5.76C123.86 6.67636 123.382 7.70455 123.076 8.84727C122.769 9.99 122.616 11.1518 122.616 12.3273C122.616 13.5027 122.769 14.6645 123.076 15.8073Z" fill="#595438"/>
<path d="M0 31.9541H1.85851L3.74592 39.9269H3.77481L5.88209 31.9541H7.75505L9.80455 39.9269H9.83344L11.7802 31.9541H13.6387L10.7563 42.3785H8.89776L6.80493 34.4056H6.77604L4.63987 42.3785H2.75246L0.00160405 31.9541H0Z" fill="#595438"/>
<path d="M16.4346 31.9541H23.9569V33.5313H18.2642V36.2615H23.5332V37.7507H18.2642V40.8028H24.0596V42.3801H16.4346V31.9557V31.9541Z" fill="#595438"/>
<path d="M27.2485 31.9541H29.0782V40.8028H34.3905V42.3801H27.2485V31.9557V31.9541Z" fill="#595438"/>
<path d="M37.2441 31.9541H39.0738V40.8028H44.3861V42.3801H37.2441V31.9557V31.9541Z" fill="#595438"/>
<path d="M47.1659 31.9541H49.0982L53.8697 39.6338H53.8986V31.9541H55.64V42.3785H53.7076L48.9522 34.7131H48.9089V42.3785H47.1675V31.9541H47.1659Z" fill="#595438"/>
<path d="M59.4003 31.9541H66.9226V33.5313H61.2299V36.2615H66.4989V37.7507H61.2299V40.8028H67.0253V42.3801H59.4003V31.9557V31.9541Z" fill="#595438"/>
<path d="M71.4148 38.9037C71.4148 39.3024 71.4822 39.6435 71.6203 39.9253C71.7567 40.2071 71.9477 40.4393 72.1916 40.6187C72.4356 40.7996 72.7164 40.9309 73.0326 41.0126C73.3488 41.0958 73.6938 41.1359 74.0646 41.1359C74.4642 41.1359 74.8061 41.0894 75.0885 40.9966C75.371 40.9037 75.6005 40.7852 75.777 40.6395C75.952 40.4938 76.0788 40.3256 76.1574 40.1351C76.2361 39.9445 76.2746 39.7524 76.2746 39.5586C76.2746 39.1599 76.1847 38.8652 76.0033 38.6747C75.822 38.4857 75.6246 38.3512 75.4111 38.2728C75.0404 38.1367 74.6087 38.007 74.1159 37.8853C73.6232 37.7636 73.0166 37.605 72.2943 37.4113C71.845 37.2944 71.4726 37.1407 71.1741 36.9517C70.8756 36.7627 70.6397 36.5498 70.4647 36.316C70.2898 36.0822 70.1646 35.834 70.0908 35.5714C70.0169 35.3088 69.9816 35.0414 69.9816 34.7675C69.9816 34.2423 70.0908 33.7876 70.3106 33.4016C70.5305 33.0173 70.821 32.6987 71.1821 32.4457C71.5432 32.1927 71.9525 32.0053 72.4115 31.8836C72.8705 31.7619 73.3327 31.7011 73.8014 31.7011C74.3471 31.7011 74.8622 31.7715 75.3453 31.9125C75.8284 32.0534 76.2521 32.2647 76.618 32.5482C76.984 32.83 77.2744 33.1791 77.4895 33.5922C77.7046 34.0053 77.8121 34.4857 77.8121 35.0302H75.9825C75.9343 34.3592 75.7048 33.8836 75.294 33.6066C74.8847 33.3296 74.3615 33.1903 73.7275 33.1903C73.5125 33.1903 73.2926 33.2127 73.0695 33.2559C72.8448 33.2992 72.6394 33.3728 72.4548 33.4753C72.2687 33.5778 72.1162 33.7171 71.9942 33.8916C71.8722 34.0662 71.8112 34.2856 71.8112 34.5482C71.8112 34.9181 71.9252 35.2079 72.1547 35.4177C72.3842 35.6274 72.6843 35.7844 73.0551 35.8916C73.0936 35.9013 73.2477 35.9429 73.5157 36.0149C73.7837 36.0886 74.0838 36.1687 74.4161 36.2567C74.7483 36.3448 75.0725 36.4297 75.3887 36.5129C75.7048 36.5962 75.9327 36.6571 76.0691 36.6955C76.411 36.8028 76.7079 36.9485 76.9615 37.1342C77.2151 37.32 77.4269 37.5314 77.5986 37.77C77.7688 38.0086 77.8956 38.2648 77.979 38.537C78.0625 38.8092 78.1026 39.0814 78.1026 39.3552C78.1026 39.9397 77.9838 40.4377 77.7447 40.8524C77.5056 41.2656 77.191 41.605 76.801 41.8677C76.411 42.1303 75.9664 42.3224 75.4689 42.4441C74.9714 42.5658 74.4642 42.6267 73.9474 42.6267C73.352 42.6267 72.7919 42.553 72.2638 42.4073C71.7358 42.2616 71.2784 42.0374 70.8884 41.7347C70.4984 41.4337 70.1855 41.0462 69.9511 40.5738C69.7168 40.1014 69.5948 39.5442 69.5852 38.9021H71.4148V38.9037Z" fill="#595438"/>
<path d="M82.4921 38.9037C82.4921 39.3024 82.5595 39.6435 82.6975 39.9253C82.834 40.2071 83.0249 40.4393 83.2689 40.6187C83.5128 40.7996 83.7937 40.9309 84.1099 41.0126C84.426 41.0958 84.7711 41.1359 85.1418 41.1359C85.5415 41.1359 85.8833 41.0894 86.1658 40.9966C86.4483 40.9037 86.6778 40.7852 86.8543 40.6395C87.0293 40.4938 87.156 40.3256 87.2347 40.1351C87.3133 39.9445 87.3518 39.7524 87.3518 39.5586C87.3518 39.1599 87.262 38.8652 87.0806 38.6747C86.8993 38.4857 86.7018 38.3512 86.4884 38.2728C86.1176 38.1367 85.6859 38.007 85.1932 37.8853C84.7005 37.7636 84.0938 37.605 83.3716 37.4113C82.9222 37.2944 82.5499 37.1407 82.2514 36.9517C81.9528 36.7627 81.7169 36.5498 81.542 36.316C81.367 36.0822 81.2419 35.834 81.168 35.5714C81.0942 35.3088 81.0589 35.0414 81.0589 34.7675C81.0589 34.2423 81.168 33.7876 81.3879 33.4016C81.6078 33.0173 81.8983 32.6987 82.2594 32.4457C82.6205 32.1927 83.0298 32.0053 83.4888 31.8836C83.9478 31.7619 84.41 31.7011 84.8786 31.7011C85.4243 31.7011 85.9395 31.7715 86.4226 31.9125C86.9057 32.0534 87.3294 32.2647 87.6953 32.5482C88.0612 32.83 88.3517 33.1791 88.5668 33.5922C88.7818 34.0053 88.8894 34.4857 88.8894 35.0302H87.0597C87.0116 34.3592 86.7821 33.8836 86.3712 33.6066C85.962 33.3296 85.4388 33.1903 84.8048 33.1903C84.5898 33.1903 84.3699 33.2127 84.1468 33.2559C83.9221 33.2992 83.7167 33.3728 83.5321 33.4753C83.3459 33.5778 83.1935 33.7171 83.0715 33.8916C82.9495 34.0662 82.8885 34.2856 82.8885 34.5482C82.8885 34.9181 83.0025 35.2079 83.232 35.4177C83.4615 35.6274 83.7616 35.7844 84.1323 35.8916C84.1709 35.9013 84.3249 35.9429 84.593 36.0149C84.861 36.0886 85.1611 36.1687 85.4933 36.2567C85.8255 36.3448 86.1497 36.4297 86.4659 36.5129C86.7821 36.5962 87.01 36.6571 87.1464 36.6955C87.4883 36.8028 87.7852 36.9485 88.0388 37.1342C88.2923 37.32 88.5042 37.5314 88.6759 37.77C88.846 38.0086 88.9728 38.2648 89.0563 38.537C89.1397 38.8092 89.1799 39.0814 89.1799 39.3552C89.1799 39.9397 89.0611 40.4377 88.822 40.8524C88.5828 41.2656 88.2683 41.605 87.8783 41.8677C87.4883 42.1303 87.0437 42.3224 86.5462 42.4441C86.0486 42.5658 85.5415 42.6267 85.0247 42.6267C84.4293 42.6267 83.8691 42.553 83.3411 42.4073C82.8131 42.2616 82.3557 42.0374 81.9657 41.7347C81.5757 41.4337 81.2627 41.0462 81.0284 40.5738C80.7941 40.1014 80.6721 39.5442 80.6625 38.9021H82.4921V38.9037Z" fill="#595438"/>
<path d="M105.088 35.2687C105.009 34.9677 104.902 34.6891 104.765 34.4361C104.629 34.1831 104.452 33.9637 104.239 33.7795C104.024 33.5954 103.774 33.4513 103.485 33.3488C103.197 33.2463 102.862 33.1951 102.482 33.1951C101.926 33.1951 101.445 33.3072 101.04 33.5313C100.636 33.7555 100.307 34.055 100.052 34.4297C99.7981 34.8044 99.6104 35.2303 99.4884 35.7075C99.3664 36.1847 99.3054 36.6715 99.3054 37.1679C99.3054 37.6643 99.3664 38.1511 99.4884 38.6282C99.6104 39.1054 99.7981 39.5314 100.052 39.9061C100.305 40.2808 100.634 40.5802 101.04 40.8044C101.445 41.0286 101.926 41.1407 102.482 41.1407C102.891 41.1407 103.252 41.0702 103.565 40.9293C103.876 40.7884 104.146 40.593 104.371 40.3448C104.595 40.0966 104.77 39.8068 104.897 39.4769C105.024 39.1455 105.107 38.79 105.146 38.4105H106.93C106.892 39.0334 106.757 39.6034 106.528 40.119C106.298 40.6347 105.988 41.0798 105.598 41.4545C105.208 41.8292 104.749 42.1191 104.223 42.3224C103.697 42.5274 103.116 42.6283 102.482 42.6283C101.702 42.6283 101 42.4841 100.382 42.1975C99.7628 41.9109 99.238 41.5186 98.8095 41.0222C98.3794 40.5258 98.0504 39.9461 97.8225 39.2848C97.593 38.6234 97.479 37.9173 97.479 37.1679C97.479 36.4185 97.593 35.7267 97.8225 35.0654C98.052 34.404 98.381 33.8244 98.8095 33.328C99.238 32.8316 99.7628 32.4377 100.382 32.1446C101.002 31.8532 101.702 31.7075 102.482 31.7075C103.067 31.7075 103.618 31.7875 104.135 31.9477C104.651 32.1078 105.107 32.3416 105.504 32.649C105.9 32.9565 106.218 33.328 106.462 33.7667C106.706 34.2055 106.857 34.7067 106.916 35.2703H105.086L105.088 35.2687Z" fill="#595438"/>
<path d="M110.195 31.9541H112.024V40.8028H117.337V42.3801H110.195V31.9557V31.9541Z" fill="#595438"/>
<path d="M120.073 31.9541H121.903V38.0278C121.903 38.3784 121.921 38.7339 121.954 39.0942C121.988 39.4545 122.086 39.778 122.246 40.0646C122.407 40.3512 122.651 40.5882 122.978 40.7724C123.306 40.9581 123.766 41.0494 124.362 41.0494C124.957 41.0494 125.418 40.9565 125.745 40.7724C126.072 40.5882 126.316 40.3512 126.477 40.0646C126.637 39.778 126.735 39.4545 126.769 39.0942C126.803 38.7339 126.82 38.3784 126.82 38.0278V31.9541H128.65V38.6266C128.65 39.2992 128.547 39.882 128.343 40.3784C128.138 40.8748 127.848 41.2912 127.472 41.6274C127.096 41.9637 126.645 42.2135 126.119 42.3801C125.593 42.545 125.007 42.6283 124.363 42.6283C123.72 42.6283 123.134 42.545 122.607 42.3801C122.081 42.2151 121.63 41.9637 121.254 41.6274C120.879 41.2912 120.588 40.8748 120.383 40.3784C120.178 39.882 120.076 39.2976 120.076 38.6266V31.9541H120.073Z" fill="#595438"/>
<path d="M132.351 31.9541H137.429C138.366 31.9541 139.117 32.1686 139.682 32.5962C140.247 33.0253 140.531 33.6722 140.531 34.5385C140.531 35.0638 140.401 35.5137 140.143 35.8884C139.885 36.2631 139.515 36.553 139.039 36.7579V36.7868C139.682 36.9229 140.17 37.2271 140.502 37.6995C140.835 38.1719 141 38.7627 141 39.4737C141 39.882 140.926 40.2648 140.78 40.6202C140.634 40.9757 140.405 41.2832 140.092 41.5394C139.779 41.7972 139.379 42.0022 138.891 42.1527C138.403 42.3032 137.822 42.3785 137.15 42.3785H132.349V31.9541H132.351ZM134.181 36.3192H137.166C137.606 36.3192 137.971 36.1959 138.264 35.9477C138.556 35.6995 138.703 35.3424 138.703 34.8748C138.703 34.3496 138.572 33.9797 138.308 33.7651C138.045 33.5506 137.665 33.4433 137.167 33.4433H134.182V36.3192H134.181ZM134.181 40.8893H137.415C137.97 40.8893 138.402 40.7451 138.71 40.4585C139.016 40.1719 139.17 39.7652 139.17 39.2399C139.17 38.7147 139.016 38.3272 138.71 38.0502C138.403 37.7732 137.971 37.6338 137.415 37.6338H134.181V40.8893Z" fill="#595438"/>
</svg>
