<?xml version="1.0" encoding="UTF-8"?>
<svg id="Capa_1" data-name="Capa 1" xmlns="http://www.w3.org/2000/svg" viewBox="0 0 1313.7 515.91">
  <defs>
    <style>
      .cls-1 {
        fill: #6d623a;
      }
    </style>
  </defs>
  <path class="cls-1" d="M344.27,308.26c-.44-5.37-.75-12.03-1.35-17.35-.51-3.96-1.48-13.46-2.25-17.24-3.89-24.8-10.56-49.21-20.75-71.87-3.19-6.83-6.65-14.05-10.8-20.32,0,0-3.92,1.86-3.9,1.88,3.28,23.76-11.03,44.44-24.86,61.36-11.37,13.72-23.98,26.24-36.9,38.33,4.21-7.34,8.07-14.88,11.71-22.61,22.5-47.94,32.48-100.45,12.09-151.47-6.44-16.01-15.54-30.72-25.73-44.14-12.09-16.21-26.05-30.53-37.5-47.2C200.3,12.1,196.94,6.26,194.51,0c0,0-2.07.91-2.07.9,1.1,3.78,1.26,7.9,1.04,11.87-2.79,35.68-34.82,66.48-59.86,86.8-6.02,4.73-12.74,9.8-19,14.12-3.2,2.26-11.6,7.96-14.67,10.2C39.27,167.04.66,243.35,0,321.87c.45,35.07,9.71,69.81,25.31,100.47,27.34,53.84,74.03,86.44,130.49,92.36,3.16.24,7.62.81,10.77.92,5.22.2,13.78.45,18.93.16,17.11-.96,34.21-4.89,50.2-11.54,13.51-5.52,26.33-13.05,38.1-22.09l4.36-3.48,1.09-.87c1.92-1.69,4.37-3.86,6.29-5.56,1.35-1.33,4.69-4.55,6.04-5.88,1.37-1.44,3.43-3.73,4.8-5.16,4.3-4.81,8.66-10.17,12.42-15.46,28.25-39.33,38.5-88.43,35.47-137.47ZM303.35,218.55c4.08-8.09,6.5-17.27,6.73-26.51,1.22,2.31,2.4,4.68,3.44,6.79,16.63,35.6,24.67,75.69,25.79,115.42,0,.18.01.36.02.53-14.36,25.57-41.96,38.35-67.81,46.13-3.52,1.02-12.67,3.69-16.01,4.91-18.13,6.16-34.83,15.86-51.09,26.31-2.51,1.05-4.99,2.16-7.45,3.34,19.44-12.79,39.26-25.05,55.74-42.15,18.55-19.41,27.59-45.44,26.31-73.19-.33-7.94-1.31-15.8-2.83-23.52,10.45-11.46,20.05-23.8,27.17-38.07ZM337.87,352.99c-2.46,2.51-5.22,4.65-8.12,6.48-8.45,5.27-17.9,8.26-27.37,10.59-23.99,5.91-48.8,6.82-72.78,13.04-2.33.64-4.93,1.51-7.19,2.3-1.2.41-2.4.83-3.61,1.25,12.35-6.29,24.85-12.19,37.98-16.37,3.33-1.17,12.39-3.72,15.9-4.69,7.17-2.17,14.25-4.7,21.14-7.81,18.27-8.48,36.72-21.71,45.55-41.45.46,12.32-.04,24.6-1.51,36.66ZM333.87,375.73c-10.78,8.46-23.55,13.33-36.01,18.14-21.95,8.16-48.98,16.41-70.78,24.86-9.41,3.84-18.9,7.23-27.74,12.63-25.52,16.02-41.33,45.89-46.91,76.59-20.22-2.58-39.48-8.92-56.95-18.78,17.2-11.34,31.71-26.8,43.18-44.7,19.06-19.17,39.81-36.82,64.34-46.83,6.51-2.8,14.03-5.4,20.77-7.69,2.26-.77,4.67-1.56,6.96-2.17,28.51-7.5,58.88-7.92,86.5-19.72,6.86-3.05,13.61-6.92,18.98-12.53.55-.55,1.06-1.14,1.57-1.74-.93,7.4-2.22,14.73-3.9,21.92ZM81.57,152.95c8.65,8.86,16.78,18.42,24.25,28.43,6.72,9.08,12.75,18.74,17.36,29.21,7.17,17.75,11.14,37.06,12.28,56.37.7,12.88.08,25.86-1.82,38.68-3.54,10.19-4.62,20.36-4.61,31.63-6.71-31.46-21.21-60.61-39.12-86.38-10.68-25.99-8.01-45.31-7.13-75.71.03-7.42.08-14.91-1.21-22.23ZM127.24,352.75c.77,6.74,1.08,13.5,1,20.24-5.28-47.06-27.11-94.56-61.92-123.28-12.37-10.12-26.51-17.69-41.35-21.97,4.11-9.87,8.85-19.43,14.15-28.61,4.62,3.38,9.02,7.11,13.21,11.08,15.7,15.05,29.01,32.87,40.58,51.74,16.5,27.53,30.07,58.1,34.33,90.79ZM81.36,270.72c23.75,29.48,38.79,66.25,45.89,104.5-2.44-10.96-6.49-21.53-11.82-31.25-15.06-27.2-38.89-47.75-64.84-61.91-6.5-3.54-13.18-6.68-20.01-9.35-5.99-2.16-12.07-4.55-18.37-5.37,3.14-13.49,7.37-26.64,12.62-39.28,21.84,9.08,41.21,23.73,56.53,42.67ZM19.82,270.42c42.32,18.47,83.89,49.55,102.8,95.85,2.07,5.22,3.77,10.6,5.24,16.09-1.27,18.82-5.63,37.37-12.52,54.8,6.15-30.76-5.53-63.89-26.16-85.69-21.68-23.51-52.86-35.93-83.35-34.92.48-16.61,2.63-32.99,6.3-48.89,2.61.72,5.25,1.84,7.68,2.77ZM131.58,352.15c-.51-3.98-1.16-7.92-1.93-11.83.79-17.94,3.31-32.56,13.94-48.7,3.69-5.46,7.61-10.95,11.39-16.51,13.26,37.77,13.29,79.72,1.95,117.96-11.08,37.68-32.06,72.36-61.76,95.95-2.32-1.32-4.61-2.69-6.86-4.13,31.07-34.67,48.56-84.44,43.27-132.72ZM170.03,192.09c-.09-7.16-.07-14.29.63-21.3.27-3.21.61-7.79.64-10.97.23-18.25-2.88-36.8-10.32-53.26-2.77-5.88-6.18-11.52-10.57-16.05,4.65-4.31,9.16-8.82,13.44-13.53,4.43,4.46,7.84,9.77,10.64,15.48,13.01,27.29,16.01,73.27,15.38,106.12-6.36,17.23-14.26,33.9-23.11,49.85,4.27-18.29,3.6-37.64,3.28-56.35ZM164.07,76.74c7.46-8.24,14.19-17.1,19.69-26.63,10.34,9.65,16.49,23.71,19.71,37.84.59,2.95,1.35,6.93,1.62,9.95.45,2.76.59,7.29.78,10.07.88,29.73-4.74,58.6-14.38,86.07,4.18-33.87.31-81.34-17.13-106.58-2.91-4.13-6.33-7.9-10.3-10.72ZM175.8,240.7c9.67-18.02,17.89-37.23,23.78-57.17,2.25-1.91,4.47-3.87,6.57-5.97,8-7.86,15.18-16.61,21.21-26.32.28,3.48.49,7.03.55,10.35.45,28.08-8.25,54.86-26.2,75.39-1.14,1.21-4.01,4.33-5.11,5.47-2.99,2.9-6.14,5.78-9.17,8.64-10.81,10.4-20.36,22.58-27.37,36.19-1.46-4.21-3.1-8.34-4.94-12.37,1.82-2.68,3.62-5.38,5.33-8.1,5.05-7.73,10.94-17.89,15.35-26.1ZM275.9,256.92c1.51,16.38,1.55,33.1-2.35,49.02-5.69,23.89-19.72,42.13-37.68,56.72-17.16,14.49-36.2,26.42-53.4,40.87-15.26,9.74-28.75,22.4-40.94,36.29,9.98-16.68,17.41-35.25,22.02-54.42,12.3-25.24,28.18-48.08,47.71-67.45h0c3.95-3.78,7.26-6.81,9.59-8.9,5.42-4.87,8.1-7,14.09-12.31,3.98-3.53,7.19-6.48,9.3-8.45h-.01c5.34-4.92,10.63-9.9,15.82-15,5.36-5.32,10.7-10.74,15.84-16.36ZM195.92,8.64c4.98,9.72,11.66,18.35,18.35,26.73,8.44,10.46,17.19,20.55,25.17,31.3,20.75,27.33,34.09,57.68,35.46,93.35,1.51,34.43-8.84,68.14-23.17,98.53-4.51,9.46-9.48,18.8-14.95,27.68-1.51,2.24-3.8,5.41-6.89,8.94-1.12,1.27-3.24,3.63-10.85,10.69-2.38,2.21-5.61,5.17-9.5,8.63,0,0,0,0,0,0-10.19,9.12-19.39,19.29-27.27,30.51,2.66-25.24,9.12-48.42,24.13-68.61,7-9.38,15.2-17.34,24.07-24.92-33.57,17.76-51.59,54.93-48.9,94.54-6.06,8.76-11.32,18.15-15.63,28.16.61-3.38,1.15-6.77,1.59-10.16,3.21-25.63.95-52.41-7.43-76.64,10.15-15.75,23.08-28.68,37.04-40.27,2.24-1.83,5.34-5.11,7.39-7.19,23.17-24.98,31.26-60.04,25.76-94.42l-3.19-.62c-1.88,3.77-4.14,7.5-6.41,11.13-4.62,7.28-9.77,14.18-15.37,20.63-1.76,2.07-3.6,4.06-5.47,6.02,6.08-20.87,9.6-42.54,9.51-64.52-.17-12.03-1.26-24.39-5-35.79-4.05-12.4-10.65-24.44-20.52-32.34,2.32-4.03,4.42-8.17,6.26-12.44,3.76-9.02,6.29-18.95,5.84-28.92ZM150.19,90.71c3.75,5.12,6.56,10.87,8.77,16.84,7.11,19.83,9.29,41.67,7.23,62.75-.09,1.06-.17,2.11-.23,3.17-3.5-10.69-11.37-19.89-18.92-27.32-9.98-10.03-21.68-17.45-31.34-27.73,2.22-1.57,4.32-3.08,6.08-4.39,9.47-7.05,19.2-14.8,28.41-23.32ZM102.44,127.84c3.54-2.57,8.37-5.94,12.8-9.08,3.35,6,8.19,10.98,12.88,15.73,13.11,13.51,30.54,25.96,37.6,44.49-.12,4.43-.06,8.84.08,13.23.84,19.6,2.39,39.2-.38,58.62-4.26,7.57-8.72,14.98-13.32,22.21-3.18,4.89-7.91,11.9-10.94,16.82-2.52,4.14-4.55,8.2-6.18,12.22,5.22-27.07,3.64-55.73-4.19-82.05-5.42-19.16-16.52-35.81-28.54-50.77-6.72-8.23-13.79-15.99-21.36-23.34,6.8-6.47,13.99-12.51,21.55-18.06ZM76.62,150.07c.9,3.33,1.44,6.85,1.77,10.41.84,9.75.57,19.69.46,29.52-.62,22.06.64,39.24,8.47,57.23-2.05-2.87-4.14-5.69-6.27-8.47-12.14-15.21-25.67-29.66-41.82-39.8,10.38-17.92,22.94-34.4,37.4-48.88ZM38.59,433.78c-20.13-32.29-32.37-72.94-32.86-111.91.01-1.66.05-3.31.09-4.97,29.82,2.65,58.99,14.91,80.19,37.99,20.8,21.96,32.42,53.92,28.08,85.32-6.68,16.07-15.49,31.14-25.97,44.54-1.35-.86-2.69-1.75-4.01-2.66,11.97-11.86,19.79-28.82,20.65-46.41,1.11-19.03-6.14-37.61-16.27-52.78,0,0-3.82,2.47-3.82,2.47,1.61,3.71,2.96,7.83,4.08,11.8,7.93,27.62,6.29,58.23-5.63,84.22-17.38-12.13-32.55-28.08-44.54-47.62ZM83.82,481.89c-.14-.1-.28-.2-.42-.3,13.26-22.6,16.73-50.89,11.62-76.95,3.78,9.22,6.12,19.05,6.23,29.23.13,17.63-6.66,34.88-17.42,48.02ZM152.69,507.98c7.86-29.19,23.74-57.58,48.73-72.64,8.53-5.01,18.01-8.43,27.17-12.05,27.98-10.99,56.9-19.38,84.05-32.82,7.37-3.85,14.84-8.08,21.04-13.93-3.43,14.45-8.36,28.38-14.86,41.48-10.91,10.06-24.31,16.42-38.57,18.62-21.32,3.6-43.29.23-64.4,5.82-28.77,7.83-53.28,34.45-59.24,65.97-1.3-.13-2.61-.28-3.9-.44ZM286.72,462.88c-24.29,24.34-55.63,40.52-88.5,45.24-6.81.95-14,1.55-20.84,1.47-3.53-.14-12.39-.22-15.75-.73-1.6-.11-3.19-.25-4.78-.41,8.39-28.95,31.12-52.88,58.2-60.88,23.7-2.24,47.37,9.86,71.37,9.18,2.34-.13,4.69-.42,6.98-.95-2.15,2.41-4.37,4.77-6.68,7.07ZM294.51,454.54c-2.69.18-5.37.11-8.04-.17-15.79-1.7-33.14-8.26-50.01-10.25,19.17-1.47,38.75-.24,57.06-7.51,8.93-3.4,17.06-8.95,23.93-15.94-6.27,12.13-13.91,23.51-22.94,33.87Z"/>
  <g>
    <g>
      <path class="cls-1" d="M495.39,128.51v59.6h72.99v-59.6h18.44v138.61h-18.44v-63.48h-72.99v63.48h-18.44v-138.61h18.44Z"/>
      <path class="cls-1" d="M758.24,128.51v15.53h-77.26v44.07h72.02v15.53h-72.02v47.95h77.85v15.53h-96.29v-138.61h95.71Z"/>
      <path class="cls-1" d="M845.99,128.51l72.99,112.4h.39v-112.4h17.47v138.61h-20.19l-72.41-111.24h-.39v111.24h-17.47v-138.61h19.61Z"/>
      <path class="cls-1" d="M1030.61,128.51v69.11l70.28-69.11h23.88l-58.43,55.91,60.76,82.7h-23.3l-50.09-70.08-23.1,21.55v48.53h-18.44v-138.61h18.44Z"/>
      <path class="cls-1" d="M1183.49,170.54c2.78-8.74,6.96-16.47,12.52-23.2,5.56-6.73,12.49-12.1,20.77-16.11,8.28-4.01,17.92-6.02,28.92-6.02s20.64,2.01,28.93,6.02c8.28,4.01,15.21,9.39,20.77,16.11,5.56,6.73,9.74,14.46,12.52,23.2,2.78,8.74,4.17,17.83,4.17,27.28s-1.39,18.54-4.17,27.28c-2.79,8.74-6.96,16.47-12.52,23.2-5.57,6.73-12.49,12.07-20.77,16.02-8.28,3.95-17.93,5.92-28.93,5.92s-20.64-1.97-28.92-5.92c-8.28-3.95-15.21-9.28-20.77-16.02-5.57-6.73-9.74-14.46-12.52-23.2-2.79-8.74-4.17-17.83-4.17-27.28s1.39-18.54,4.17-27.28ZM1200.48,218.49c1.81,6.79,4.66,12.91,8.54,18.35,3.88,5.44,8.86,9.8,14.95,13.1,6.08,3.3,13.33,4.95,21.74,4.95s15.66-1.65,21.74-4.95c6.08-3.3,11.07-7.67,14.95-13.1,3.88-5.44,6.73-11.55,8.54-18.35,1.81-6.79,2.72-13.69,2.72-20.67s-.91-13.88-2.72-20.68c-1.81-6.79-4.66-12.91-8.54-18.35-3.88-5.44-8.87-9.8-14.95-13.1-6.08-3.3-13.33-4.95-21.74-4.95s-15.66,1.65-21.74,4.95c-6.08,3.3-11.07,7.67-14.95,13.1-3.88,5.44-6.73,11.55-8.54,18.35-1.81,6.79-2.72,13.69-2.72,20.68s.9,13.88,2.72,20.67Z"/>
    </g>
    <g>
      <path class="cls-1" d="M476.95,327.21h11.03l11.2,47.42h.17l12.51-47.42h11.12l12.16,47.42h.17l11.55-47.42h11.03l-17.11,62.01h-11.03l-12.42-47.42h-.17l-12.68,47.42h-11.2l-16.33-62.01Z"/>
      <path class="cls-1" d="M574.48,327.21h44.64v9.38h-33.78v16.24h31.26v8.86h-31.26v18.15h34.39v9.38h-45.25v-62.01Z"/>
      <path class="cls-1" d="M638.65,327.21h10.86v52.63h31.53v9.38h-42.38v-62.01Z"/>
      <path class="cls-1" d="M697.97,327.21h10.86v52.63h31.53v9.38h-42.38v-62.01Z"/>
      <path class="cls-1" d="M756.85,327.21h11.46l28.31,45.68h.17v-45.68h10.33v62.01h-11.46l-28.23-45.59h-.26v45.59h-10.33v-62.01Z"/>
      <path class="cls-1" d="M829.45,327.21h44.64v9.38h-33.78v16.24h31.26v8.86h-31.26v18.15h34.39v9.38h-45.25v-62.01Z"/>
      <path class="cls-1" d="M900.75,368.55c0,2.38.4,4.4,1.22,6.08.81,1.68,1.94,3.05,3.39,4.12,1.45,1.07,3.11,1.85,4.99,2.35,1.88.49,3.92.74,6.12.74,2.37,0,4.4-.27,6.08-.83,1.68-.55,3.04-1.26,4.08-2.13,1.04-.87,1.79-1.87,2.26-3,.46-1.13.69-2.27.69-3.43,0-2.37-.54-4.12-1.61-5.25-1.07-1.13-2.24-1.92-3.52-2.39-2.2-.81-4.76-1.58-7.69-2.3-2.92-.72-6.53-1.66-10.81-2.82-2.66-.69-4.88-1.61-6.64-2.74-1.77-1.13-3.17-2.39-4.21-3.78-1.04-1.39-1.78-2.87-2.21-4.43-.43-1.56-.65-3.16-.65-4.78,0-3.13.65-5.83,1.95-8.12,1.3-2.29,3.02-4.18,5.17-5.69,2.14-1.5,4.57-2.62,7.3-3.34,2.72-.72,5.47-1.08,8.25-1.08,3.24,0,6.3.42,9.16,1.26,2.87.84,5.38,2.1,7.56,3.78,2.17,1.68,3.89,3.75,5.17,6.21,1.27,2.46,1.91,5.31,1.91,8.55h-10.86c-.29-3.99-1.65-6.82-4.08-8.47-2.43-1.65-5.53-2.47-9.29-2.47-1.27,0-2.58.13-3.91.39-1.33.26-2.55.7-3.65,1.3-1.1.61-2.01,1.43-2.74,2.48-.72,1.04-1.09,2.34-1.09,3.91,0,2.2.68,3.92,2.04,5.17,1.36,1.25,3.14,2.19,5.34,2.82.23.06,1.14.3,2.74.74,1.59.43,3.37.91,5.34,1.43,1.97.52,3.89,1.03,5.78,1.52,1.88.49,3.23.85,4.04,1.08,2.03.64,3.79,1.51,5.3,2.61,1.5,1.1,2.76,2.36,3.78,3.78,1.01,1.42,1.77,2.94,2.26,4.56.49,1.62.74,3.24.74,4.86,0,3.47-.71,6.44-2.13,8.9-1.42,2.46-3.29,4.47-5.6,6.04-2.32,1.56-4.95,2.71-7.9,3.43-2.95.72-5.96,1.09-9.03,1.09-3.53,0-6.86-.43-9.99-1.3-3.13-.87-5.85-2.2-8.16-4-2.32-1.79-4.17-4.09-5.56-6.9-1.39-2.81-2.11-6.12-2.17-9.94h10.86Z"/>
      <path class="cls-1" d="M966.5,368.55c0,2.38.4,4.4,1.22,6.08.81,1.68,1.94,3.05,3.39,4.12,1.45,1.07,3.11,1.85,4.99,2.35,1.88.49,3.92.74,6.12.74,2.37,0,4.4-.27,6.08-.83,1.68-.55,3.04-1.26,4.08-2.13,1.04-.87,1.79-1.87,2.26-3,.46-1.13.69-2.27.69-3.43,0-2.37-.54-4.12-1.61-5.25-1.07-1.13-2.24-1.92-3.52-2.39-2.2-.81-4.76-1.58-7.69-2.3-2.92-.72-6.53-1.66-10.81-2.82-2.66-.69-4.88-1.61-6.64-2.74-1.77-1.13-3.17-2.39-4.21-3.78-1.04-1.39-1.78-2.87-2.21-4.43-.43-1.56-.65-3.16-.65-4.78,0-3.13.65-5.83,1.95-8.12,1.3-2.29,3.02-4.18,5.17-5.69,2.14-1.5,4.57-2.62,7.3-3.34,2.72-.72,5.47-1.08,8.25-1.08,3.24,0,6.3.42,9.16,1.26,2.87.84,5.38,2.1,7.56,3.78,2.17,1.68,3.89,3.75,5.17,6.21,1.27,2.46,1.91,5.31,1.91,8.55h-10.86c-.29-3.99-1.65-6.82-4.08-8.47-2.43-1.65-5.53-2.47-9.29-2.47-1.27,0-2.58.13-3.91.39-1.33.26-2.55.7-3.65,1.3-1.1.61-2.01,1.43-2.74,2.48-.72,1.04-1.09,2.34-1.09,3.91,0,2.2.68,3.92,2.04,5.17,1.36,1.25,3.14,2.19,5.34,2.82.23.06,1.14.3,2.74.74,1.59.43,3.37.91,5.34,1.43,1.97.52,3.89,1.03,5.78,1.52,1.88.49,3.23.85,4.04,1.08,2.03.64,3.79,1.51,5.3,2.61,1.5,1.1,2.76,2.36,3.78,3.78,1.01,1.42,1.77,2.94,2.26,4.56.49,1.62.74,3.24.74,4.86,0,3.47-.71,6.44-2.13,8.9-1.42,2.46-3.29,4.47-5.6,6.04-2.32,1.56-4.95,2.71-7.9,3.43-2.95.72-5.96,1.09-9.03,1.09-3.53,0-6.86-.43-9.99-1.3-3.13-.87-5.85-2.2-8.16-4-2.32-1.79-4.17-4.09-5.56-6.9-1.39-2.81-2.11-6.12-2.17-9.94h10.86Z"/>
      <path class="cls-1" d="M1100.59,346.93c-.46-1.79-1.1-3.44-1.91-4.95-.81-1.5-1.85-2.81-3.13-3.91-1.27-1.1-2.77-1.95-4.47-2.56-1.71-.61-3.69-.91-5.95-.91-3.3,0-6.15.67-8.55,2-2.4,1.33-4.36,3.11-5.86,5.34-1.51,2.23-2.62,4.76-3.34,7.6-.72,2.84-1.09,5.73-1.09,8.68s.36,5.85,1.09,8.68c.72,2.84,1.84,5.37,3.34,7.6,1.5,2.23,3.46,4.01,5.86,5.34,2.4,1.33,5.25,2,8.55,2,2.43,0,4.57-.42,6.43-1.26,1.85-.84,3.44-2,4.78-3.47,1.33-1.48,2.37-3.2,3.13-5.17.75-1.97,1.24-4.08,1.48-6.34h10.6c-.23,3.71-1.03,7.09-2.39,10.16-1.36,3.07-3.2,5.72-5.51,7.95-2.32,2.23-5.04,3.95-8.16,5.17-3.13,1.22-6.57,1.82-10.33,1.82-4.63,0-8.79-.85-12.46-2.56-3.68-1.71-6.79-4.04-9.34-6.99-2.55-2.95-4.5-6.4-5.86-10.34-1.36-3.94-2.04-8.13-2.04-12.59s.68-8.57,2.04-12.51c1.36-3.94,3.31-7.38,5.86-10.33,2.55-2.95,5.66-5.3,9.34-7.04,3.68-1.74,7.83-2.6,12.46-2.6,3.47,0,6.74.48,9.81,1.43,3.07.96,5.78,2.34,8.12,4.17s4.24,4.04,5.69,6.64c1.45,2.61,2.34,5.59,2.69,8.95h-10.86Z"/>
      <path class="cls-1" d="M1130.9,327.21h10.86v52.63h31.53v9.38h-42.38v-62.01Z"/>
      <path class="cls-1" d="M1189.52,327.21h10.86v36.13c0,2.08.1,4.2.3,6.34.2,2.14.78,4.07,1.74,5.77.96,1.71,2.4,3.11,4.34,4.21,1.94,1.1,4.67,1.65,8.21,1.65s6.27-.55,8.21-1.65c1.94-1.1,3.39-2.5,4.34-4.21.96-1.71,1.53-3.63,1.74-5.77.2-2.14.3-4.26.3-6.34v-36.13h10.86v39.69c0,4-.61,7.47-1.82,10.42-1.22,2.95-2.94,5.43-5.17,7.43-2.23,2-4.91,3.49-8.03,4.47-3.13.98-6.6,1.48-10.42,1.48s-7.3-.49-10.42-1.48-5.81-2.48-8.03-4.47c-2.23-2-3.95-4.47-5.17-7.43-1.22-2.95-1.82-6.43-1.82-10.42v-39.69Z"/>
      <path class="cls-1" d="M1262.38,327.21h30.14c5.56,0,10.02,1.27,13.37,3.82,3.36,2.55,5.04,6.4,5.04,11.55,0,3.13-.77,5.8-2.3,8.03-1.53,2.23-3.72,3.95-6.56,5.17v.17c3.82.81,6.72,2.62,8.68,5.43,1.97,2.81,2.95,6.33,2.95,10.55,0,2.43-.43,4.7-1.3,6.82-.87,2.12-2.23,3.94-4.08,5.47-1.85,1.53-4.23,2.75-7.12,3.65-2.9.9-6.34,1.35-10.33,1.35h-28.49v-62.01ZM1273.23,353.18h17.72c2.61,0,4.78-.74,6.51-2.21,1.74-1.48,2.61-3.6,2.61-6.38,0-3.13-.78-5.33-2.34-6.6-1.56-1.27-3.82-1.91-6.77-1.91h-17.72v17.11ZM1273.23,380.36h19.19c3.3,0,5.86-.85,7.69-2.56,1.82-1.71,2.74-4.13,2.74-7.25s-.91-5.43-2.74-7.08c-1.82-1.65-4.39-2.48-7.69-2.48h-19.19v19.37Z"/>
    </g>
  </g>
</svg>