<svg width="328" height="102" viewBox="0 0 328 102" fill="none" xmlns="http://www.w3.org/2000/svg">
<path d="M9.30078 6.23096V28.9261H37.1629V6.23096H44.1995V59.0115H37.1629V34.842H9.30078V59.0115H2.26416V6.23096H9.30078Z" fill="#F9E5C7"/>
<path d="M109.619 6.23096V12.1469H80.1309V28.9261H107.622V34.842H80.1309V53.1017H109.842V59.0176H73.0942V6.23711H109.619V6.23096Z" fill="#F9E5C7"/>
<path d="M143.108 6.23096L170.97 49.0303H171.118V6.23096H177.79V59.0115H170.086L142.446 16.6563H142.298V59.0115H135.632V6.23096H143.114H143.108Z" fill="#F9E5C7"/>
<path d="M213.573 6.23096V32.5472L240.397 6.23096H249.511L227.207 27.5196L250.401 59.0115H241.51L222.391 32.3251L213.573 40.5296V59.0115H206.537V6.23096H213.573Z" fill="#F9E5C7"/>
<path d="M271.919 22.233C272.983 18.908 274.572 15.9593 276.699 13.3993C278.82 10.8392 281.466 8.79116 284.626 7.26129C287.786 5.73759 291.465 4.97266 295.663 4.97266C299.862 4.97266 303.541 5.73759 306.701 7.26129C309.86 8.79116 312.507 10.833 314.628 13.3993C316.748 15.9593 318.344 18.908 319.407 22.233C320.471 25.558 321.003 29.0249 321.003 32.6214C321.003 36.2178 320.471 39.6785 319.407 43.0097C318.344 46.3347 316.748 49.2834 314.628 51.8434C312.5 54.4035 309.86 56.4392 306.701 57.9444C303.541 59.4496 299.856 60.196 295.663 60.196C291.471 60.196 287.786 59.4434 284.626 57.9444C281.466 56.4392 278.82 54.4097 276.699 51.8434C274.572 49.2834 272.983 46.3347 271.919 43.0097C270.856 39.6847 270.324 36.224 270.324 32.6214C270.324 29.0188 270.856 25.5642 271.919 22.233ZM278.406 40.4928C279.098 43.0775 280.186 45.4093 281.664 47.4759C283.148 49.5486 285.046 51.208 287.371 52.4665C289.69 53.7249 292.46 54.3541 295.669 54.3541C298.879 54.3541 301.649 53.7249 303.967 52.4665C306.286 51.208 308.191 49.5486 309.675 47.4759C311.159 45.4032 312.241 43.0775 312.933 40.4928C313.626 37.908 313.972 35.2801 313.972 32.6214C313.972 29.9626 313.626 27.3347 312.933 24.7499C312.241 22.1652 311.153 19.8334 309.675 17.7668C308.191 15.6941 306.292 14.0347 303.967 12.7762C301.643 11.5178 298.879 10.8886 295.669 10.8886C292.46 10.8886 289.69 11.5178 287.371 12.7762C285.046 14.0347 283.148 15.6941 281.664 17.7668C280.18 19.8395 279.098 22.1652 278.406 24.7499C277.713 27.3347 277.367 29.9626 277.367 32.6214C277.367 35.2801 277.713 37.908 278.406 40.4928Z" fill="#F9E5C7"/>
<path d="M0 77.0151H4.20409L8.47353 95.0489H8.53887L13.3057 77.0151H17.5425L22.1786 95.0489H22.2439L26.6477 77.0151H30.8518L24.3314 100.594H20.1273L15.3932 82.5604H15.3279L10.4957 100.594H6.22626L0.00362848 77.0151H0Z" fill="#F9E5C7"/>
<path d="M37.176 77.0151H54.1921V80.5828H41.3148V86.7582H53.2336V90.1266H41.3148V97.0301H54.4244V100.598H37.176V77.0187V77.0151Z" fill="#F9E5C7"/>
<path d="M61.6382 77.0151H65.7769V97.0301H77.7938V100.598H61.6382V77.0187V77.0151Z" fill="#F9E5C7"/>
<path d="M84.2488 77.0151H88.3875V97.0301H100.404V100.598H84.2488V77.0187V77.0151Z" fill="#F9E5C7"/>
<path d="M106.692 77.0151H111.063L121.857 94.386H121.922V77.0151H125.861V100.594H121.49L110.733 83.2558H110.635V100.594H106.696V77.0151H106.692Z" fill="#F9E5C7"/>
<path d="M134.367 77.0151H151.383V80.5828H138.506V86.7582H150.425V90.1266H138.506V97.0301H151.616V100.598H134.367V77.0187V77.0151Z" fill="#F9E5C7"/>
<path d="M161.545 92.7344C161.545 93.6363 161.698 94.4078 162.01 95.0453C162.319 95.6827 162.751 96.2079 163.302 96.6136C163.854 97.0228 164.49 97.3199 165.205 97.5046C165.92 97.6929 166.701 97.7835 167.539 97.7835C168.443 97.7835 169.216 97.6784 169.855 97.4683C170.494 97.2583 171.014 96.9903 171.413 96.6607C171.809 96.3311 172.095 95.9507 172.273 95.5197C172.451 95.0887 172.538 94.6541 172.538 94.2158C172.538 93.314 172.335 92.6475 171.925 92.2165C171.515 91.7891 171.068 91.4849 170.585 91.3074C169.746 90.9995 168.77 90.7061 167.655 90.4309C166.541 90.1556 165.168 89.797 163.535 89.3588C162.518 89.0944 161.676 88.7467 161.001 88.3193C160.325 87.8919 159.792 87.4102 159.396 86.8814C159 86.3526 158.717 85.7911 158.55 85.1971C158.383 84.6031 158.303 83.9983 158.303 83.3789C158.303 82.1909 158.55 81.1623 159.047 80.2894C159.545 79.4201 160.202 78.6994 161.019 78.1271C161.836 77.5548 162.761 77.131 163.8 76.8558C164.838 76.5805 165.884 76.4429 166.944 76.4429C168.178 76.4429 169.343 76.6022 170.436 76.921C171.529 77.2397 172.487 77.7178 173.315 78.3589C174.143 78.9963 174.8 79.7859 175.287 80.7204C175.773 81.6549 176.016 82.7415 176.016 83.9729H171.878C171.769 82.4553 171.249 81.3796 170.32 80.753C169.394 80.1264 168.211 79.8113 166.777 79.8113C166.29 79.8113 165.793 79.862 165.288 79.9598C164.78 80.0576 164.315 80.2242 163.898 80.456C163.477 80.6878 163.132 81.0029 162.856 81.3977C162.58 81.7925 162.442 82.2887 162.442 82.8827C162.442 83.7194 162.7 84.375 163.219 84.8494C163.738 85.3239 164.417 85.6789 165.256 85.9215C165.343 85.9433 165.691 86.0374 166.298 86.2004C166.904 86.367 167.583 86.5481 168.334 86.7474C169.086 86.9466 169.819 87.1385 170.534 87.3269C171.25 87.5152 171.765 87.6528 172.074 87.7398C172.847 87.9824 173.519 88.312 174.092 88.7322C174.666 89.1523 175.145 89.6304 175.533 90.1701C175.918 90.7098 176.205 91.2893 176.394 91.905C176.583 92.5208 176.673 93.1365 176.673 93.7558C176.673 95.0779 176.405 96.2043 175.864 97.1424C175.323 98.0768 174.611 98.8447 173.729 99.4387C172.847 100.033 171.841 100.467 170.716 100.743C169.59 101.018 168.443 101.155 167.274 101.155C165.927 101.155 164.66 100.989 163.466 100.659C162.271 100.33 161.237 99.8226 160.354 99.1381C159.472 98.4571 158.764 97.5806 158.234 96.5121C157.704 95.4437 157.428 94.1832 157.406 92.7308H161.545V92.7344Z" fill="#F9E5C7"/>
<path d="M186.603 92.7344C186.603 93.6363 186.755 94.4078 187.067 95.0453C187.376 95.6827 187.808 96.2079 188.36 96.6136C188.912 97.0228 189.547 97.3199 190.262 97.5046C190.977 97.6929 191.758 97.7835 192.597 97.7835C193.5 97.7835 194.274 97.6784 194.913 97.4683C195.552 97.2583 196.071 96.9903 196.47 96.6607C196.866 96.3311 197.153 95.9507 197.331 95.5197C197.509 95.0887 197.596 94.6541 197.596 94.2158C197.596 93.314 197.392 92.6475 196.982 92.2165C196.572 91.7891 196.125 91.4849 195.642 91.3074C194.804 90.9995 193.827 90.7061 192.713 90.4309C191.598 90.1556 190.226 89.797 188.592 89.3588C187.576 89.0944 186.733 88.7467 186.058 88.3193C185.383 87.8919 184.849 87.4102 184.453 86.8814C184.058 86.3526 183.774 85.7911 183.607 85.1971C183.44 84.6031 183.361 83.9983 183.361 83.3789C183.361 82.1909 183.607 81.1623 184.105 80.2894C184.602 79.4201 185.259 78.6994 186.076 78.1271C186.893 77.5548 187.819 77.131 188.857 76.8558C189.895 76.5805 190.941 76.4429 192.001 76.4429C193.235 76.4429 194.401 76.6022 195.494 76.921C196.586 77.2397 197.545 77.7178 198.373 78.3589C199.2 78.9963 199.857 79.7859 200.344 80.7204C200.83 81.6549 201.074 82.7415 201.074 83.9729H196.935C196.826 82.4553 196.307 81.3796 195.377 80.753C194.452 80.1264 193.268 79.8113 191.834 79.8113C191.348 79.8113 190.85 79.862 190.346 79.9598C189.837 80.0576 189.373 80.2242 188.955 80.456C188.534 80.6878 188.189 81.0029 187.913 81.3977C187.637 81.7925 187.499 82.2887 187.499 82.8827C187.499 83.7194 187.757 84.375 188.276 84.8494C188.795 85.3239 189.474 85.6789 190.313 85.9215C190.4 85.9433 190.749 86.0374 191.355 86.2004C191.961 86.367 192.64 86.5481 193.392 86.7474C194.143 86.9466 194.876 87.1385 195.592 87.3269C196.307 87.5152 196.822 87.6528 197.131 87.7398C197.904 87.9824 198.576 88.312 199.15 88.7322C199.723 89.1523 200.202 89.6304 200.591 90.1701C200.976 90.7098 201.262 91.2893 201.451 91.905C201.64 92.5208 201.731 93.1365 201.731 93.7558C201.731 95.0779 201.462 96.2043 200.921 97.1424C200.38 98.0768 199.669 98.8447 198.786 99.4387C197.904 100.033 196.899 100.467 195.773 100.743C194.648 101.018 193.501 101.155 192.331 101.155C190.985 101.155 189.718 100.989 188.523 100.659C187.329 100.33 186.294 99.8226 185.412 99.1381C184.53 98.4571 183.822 97.5806 183.292 96.5121C182.762 95.4437 182.486 94.1832 182.464 92.7308H186.603V92.7344Z" fill="#F9E5C7"/>
<path d="M237.716 84.5128C237.538 83.8318 237.295 83.2016 236.987 82.6294C236.678 82.0571 236.279 81.5609 235.796 81.1443C235.309 80.7278 234.743 80.4018 234.089 80.17C233.44 79.9382 232.681 79.8223 231.82 79.8223C230.564 79.8223 229.475 80.0759 228.56 80.5829C227.645 81.09 226.901 81.7673 226.324 82.6149C225.75 83.4624 225.325 84.4258 225.05 85.5052C224.774 86.5845 224.636 87.6856 224.636 88.8084C224.636 89.9312 224.774 91.0323 225.05 92.1116C225.325 93.191 225.75 94.1544 226.324 95.002C226.897 95.8495 227.642 96.5268 228.56 97.0339C229.475 97.541 230.564 97.7945 231.82 97.7945C232.746 97.7945 233.563 97.6351 234.271 97.3164C234.975 96.9977 235.585 96.5558 236.093 95.9944C236.602 95.433 236.997 94.7774 237.284 94.0313C237.571 93.2815 237.76 92.4775 237.847 91.6191H241.884C241.797 93.028 241.492 94.3174 240.973 95.4837C240.454 96.65 239.753 97.6569 238.871 98.5044C237.989 99.3519 236.95 100.008 235.759 100.468C234.569 100.931 233.254 101.159 231.82 101.159C230.056 101.159 228.469 100.833 227.072 100.185C225.67 99.5367 224.483 98.6493 223.514 97.5265C222.541 96.4037 221.797 95.0925 221.281 93.5966C220.762 92.1008 220.504 90.5035 220.504 88.8084C220.504 87.1133 220.762 85.5487 221.281 84.0528C221.8 82.5569 222.544 81.2457 223.514 80.1229C224.483 79.0001 225.67 78.1091 227.072 77.4463C228.473 76.7871 230.056 76.4575 231.82 76.4575C233.145 76.4575 234.391 76.6386 235.56 77.0008C236.729 77.363 237.76 77.8918 238.657 78.5872C239.553 79.2827 240.272 80.123 240.824 81.1154C241.376 82.1078 241.717 83.2415 241.851 84.5164H237.713L237.716 84.5128Z" fill="#F9E5C7"/>
<path d="M249.268 77.0151H253.407V97.0301H265.424V100.598H249.268V77.0187V77.0151Z" fill="#F9E5C7"/>
<path d="M271.614 77.0151H275.753V90.7532C275.753 91.5464 275.793 92.3505 275.869 93.1654C275.945 93.9804 276.167 94.712 276.53 95.3604C276.893 96.0087 277.445 96.5447 278.185 96.9613C278.926 97.3814 279.968 97.5879 281.315 97.5879C282.662 97.5879 283.703 97.3778 284.444 96.9613C285.185 96.5447 285.737 96.0087 286.1 95.3604C286.463 94.712 286.684 93.9804 286.76 93.1654C286.837 92.3505 286.877 91.5464 286.877 90.7532V77.0151H291.015V92.1078C291.015 93.6291 290.783 94.9475 290.322 96.0703C289.857 97.1931 289.2 98.1348 288.35 98.8954C287.501 99.656 286.481 100.221 285.29 100.598C284.099 100.971 282.774 101.159 281.318 101.159C279.862 101.159 278.537 100.971 277.347 100.598C276.156 100.225 275.136 99.656 274.286 98.8954C273.437 98.1348 272.779 97.1931 272.315 96.0703C271.85 94.9475 271.621 93.6254 271.621 92.1078V77.0151H271.614Z" fill="#F9E5C7"/>
<path d="M299.387 77.0151H310.874C312.994 77.0151 314.693 77.5005 315.971 78.4675C317.249 79.4382 317.891 80.9015 317.891 82.861C317.891 84.049 317.597 85.0668 317.013 85.9143C316.428 86.7618 315.593 87.4174 314.515 87.881V87.9462C315.971 88.2541 317.075 88.9423 317.826 90.0107C318.578 91.0792 318.952 92.4157 318.952 94.0238C318.952 94.9474 318.785 95.8131 318.454 96.6172C318.124 97.4213 317.605 98.1167 316.897 98.6962C316.189 99.2793 315.285 99.7429 314.181 100.083C313.077 100.424 311.763 100.594 310.242 100.594H299.383V77.0151H299.387ZM303.526 86.8886H310.278C311.273 86.8886 312.101 86.6097 312.762 86.0483C313.422 85.4869 313.756 84.6792 313.756 83.6216C313.756 82.4336 313.459 81.5969 312.863 81.1116C312.268 80.6262 311.407 80.3836 310.282 80.3836H303.529V86.8886H303.526ZM303.526 97.2257H310.841C312.097 97.2257 313.074 96.8997 313.771 96.2514C314.464 95.603 314.813 94.6831 314.813 93.4951C314.813 92.3071 314.464 91.4305 313.771 90.8039C313.077 90.1773 312.101 89.8622 310.841 89.8622H303.526V97.2257Z" fill="#F9E5C7"/>
</svg>
