<svg width="56" height="56" viewBox="0 0 56 56" fill="none" xmlns="http://www.w3.org/2000/svg">
<path fill-rule="evenodd" clip-rule="evenodd" d="M25.7714 4.10559C24.2894 4.43863 23.1662 5.06511 22.115 6.14503C20.9427 7.34941 20.2832 8.7944 20.1647 10.4184L20.1072 11.2075L20.3623 11.4589C20.6955 11.7871 21.1411 11.7926 21.4659 11.4725L21.7071 11.235L21.7088 10.8192C21.7141 9.53655 22.3588 8.06804 23.3436 7.09574L23.949 6.49791L24.7793 6.10206L25.6094 5.70621L26.4094 5.59133L27.2094 5.47654L28.02 5.59123L28.8306 5.70592L29.6543 6.10593L30.4779 6.50584L31.0794 7.09971C31.7964 7.80778 32.3693 8.8276 32.5675 9.74957L32.7082 10.4035L32.71 22.8183L32.7117 35.2331L33.4433 36.0037C34.6248 37.2481 35.3237 38.5695 35.6698 40.2131C35.7708 40.6922 35.8539 41.307 35.8546 41.5792L35.8558 42.0743L36.0595 42.3293L36.2631 42.5843H36.6043C36.8408 42.5843 37.024 42.5071 37.201 42.3328L37.4563 42.0812L37.3959 41.1956C37.2462 39.0005 36.2537 36.6956 34.7691 35.0956L34.2888 34.5778L34.2618 22.1036L34.2346 9.62927L34.0038 8.95178C33.877 8.57916 33.614 7.96941 33.4194 7.5968L33.0657 6.9193L32.1764 6.04321L31.287 5.16722L30.5992 4.81879C29.4993 4.2617 28.6812 4.05062 27.455 4.00784C26.749 3.98316 26.1653 4.01703 25.7714 4.10559ZM26.1467 7.20946C25.4586 7.40003 24.8932 7.73539 24.3997 8.24544C23.863 8.80011 23.612 9.2341 23.4302 9.92136L23.2792 10.4926V22.3347C23.2792 29.8741 23.3142 34.2411 23.3754 34.3539C23.4283 34.4513 23.6051 34.5768 23.7684 34.6328L24.0653 34.7347L24.3621 34.6328C24.5254 34.5768 24.7022 34.4513 24.7551 34.3539C24.8141 34.2454 24.8513 32.375 24.8513 29.5272V24.8776L25.1215 24.9837C25.2701 25.0422 25.7012 25.0902 26.0795 25.0905L26.7673 25.091L27.5321 24.8265L28.2969 24.5621L28.6346 24.6245C28.8203 24.6588 29.1061 24.798 29.2699 24.9337L29.5675 25.1804V30.9709C29.5675 34.1557 29.5947 36.8314 29.6281 36.9168C29.6614 37.0023 29.9246 37.2265 30.2131 37.4151C31.4066 38.1955 32.2575 39.4214 32.572 40.8138L32.7386 41.5515L32.6823 42.3367C32.5843 43.7049 32.0421 44.8738 31.0538 45.8472C29.9944 46.8908 28.3267 47.5033 26.8608 47.3874C23.9082 47.1537 21.7007 44.8082 21.7086 41.9132C21.7131 40.2166 22.7378 38.3559 24.1642 37.4544C24.8976 36.9908 25.0462 36.5635 24.6476 36.0645L24.444 35.8094H24.0993C23.6377 35.8094 22.8786 36.3144 22.068 37.1609C21.3272 37.9345 20.7997 38.8139 20.4502 39.8582L20.2019 40.6003L20.193 41.8585L20.1842 43.1166L20.4143 43.8425C20.5408 44.2418 20.8039 44.8733 20.9987 45.2459L21.3531 45.9234L22.2424 46.7995L23.1318 47.6755L23.8196 48.0246C24.1979 48.2165 24.839 48.4754 25.2443 48.5998L25.9812 48.8259L27.2585 48.8181L28.5359 48.8104L29.3219 48.5531C32.1615 47.6239 34.0424 45.2767 34.2495 42.404C34.4042 40.2566 33.584 38.2698 31.9104 36.7384L31.1396 36.0329V23.2628V10.4926L30.9911 9.93123C30.9095 9.62239 30.7292 9.17903 30.5905 8.94587C30.2167 8.31764 29.3644 7.59631 28.7075 7.35232C27.9755 7.08045 26.8409 7.01706 26.1467 7.20946ZM26.4121 8.74059C25.8538 8.94645 25.4641 9.26545 25.171 9.75654L24.9004 10.21L24.8732 16.6026L24.846 22.9952L25.0847 23.2162C25.4381 23.5432 25.9524 23.6264 26.5561 23.4545C28.0334 23.0338 28.6586 22.9856 29.3491 23.2393L29.5728 23.3214L29.5456 16.758L29.5184 10.1946L29.2211 9.72092C29.0419 9.4355 28.7413 9.13615 28.4648 8.96784L28.006 8.68833L27.3866 8.64903C27.0095 8.62503 26.6283 8.66084 26.4121 8.74059ZM20.3763 13.4963L20.1351 13.7338V14.8072V15.8807L20.3763 16.1182C20.5283 16.268 20.7297 16.3558 20.9211 16.3558C21.1125 16.3558 21.3139 16.268 21.4659 16.1182L21.7071 15.8807V14.8072V13.7338L21.4659 13.4963C21.3139 13.3465 21.1125 13.2587 20.9211 13.2587C20.7297 13.2587 20.5283 13.3465 20.3763 13.4963ZM36.0971 13.4963C35.945 13.646 35.8558 13.8444 35.8558 14.033C35.8558 14.2215 35.945 14.4199 36.0971 14.5696L36.3382 14.8072H37.4279H38.5177L38.7588 14.5696C38.9109 14.4199 39 14.2215 39 14.033C39 13.8444 38.9109 13.646 38.7588 13.4963L38.5177 13.2587H37.4279H36.3382L36.0971 13.4963ZM36.0971 18.1419C35.945 18.2917 35.8558 18.4901 35.8558 18.6786C35.8558 18.8671 35.945 19.0655 36.0971 19.2153L36.3382 19.4529H37.4279H38.5177L38.7588 19.2153C38.9109 19.0655 39 18.8671 39 18.6786C39 18.4901 38.9109 18.2917 38.7588 18.1419L38.5177 17.9043H37.4279H36.3382L36.0971 18.1419ZM20.3763 18.5291L20.1351 18.7666V26.67V34.5733L19.6585 35.1188C18.9405 35.9407 18.5104 36.5675 18.0834 37.4146C14.8094 43.9098 19.3248 51.5448 26.6746 51.9414L27.761 52L28.7638 51.8349C30.4245 51.5613 31.6794 51.06 33.0749 50.1126C33.9587 49.5126 35.2254 48.2222 35.8213 47.3149C36.4394 46.3736 36.9592 45.1746 36.8814 44.8693C36.7323 44.2841 35.977 44.0896 35.5146 44.5175C35.378 44.6439 35.2663 44.8033 35.2663 44.8716C35.2663 45.1025 34.4247 46.6094 33.9726 47.1881C32.7066 48.8086 30.8024 49.921 28.6644 50.289L27.7498 50.4464L26.7673 50.3913C22.27 50.1391 18.852 46.7723 18.596 42.3424L18.5401 41.3745L18.6998 40.4737C19.0019 38.7715 19.7371 37.3523 21.0552 35.9272L21.7071 35.2223V26.9944V18.7666L21.4659 18.5291C21.3139 18.3792 21.1125 18.2915 20.9211 18.2915C20.7297 18.2915 20.5283 18.3792 20.3763 18.5291ZM36.0971 22.7876C35.945 22.9373 35.8558 23.1357 35.8558 23.3243C35.8558 23.5128 35.945 23.7112 36.0971 23.8609L36.3382 24.0985H37.4279H38.5177L38.7588 23.8609C38.9109 23.7112 39 23.5128 39 23.3243C39 23.1357 38.9109 22.9373 38.7588 22.7876L38.5177 22.55H37.4279H36.3382L36.0971 22.7876ZM36.0971 27.4332C35.945 27.583 35.8558 27.7814 35.8558 27.9699C35.8558 28.1584 35.945 28.3568 36.0971 28.5066L36.3382 28.7442H37.4279H38.5177L38.7588 28.5066C38.9109 28.3568 39 28.1584 39 27.9699C39 27.7814 38.9109 27.583 38.7588 27.4332L38.5177 27.1956H37.4279H36.3382L36.0971 27.4332ZM36.0971 32.0789C35.945 32.2286 35.8558 32.427 35.8558 32.6155C35.8558 32.8041 35.945 33.0025 36.0971 33.1522L36.3382 33.3898H37.4279H38.5177L38.7588 33.1522C38.9109 33.0025 39 32.8041 39 32.6155C39 32.427 38.9109 32.2286 38.7588 32.0789L38.5177 31.8413H37.4279H36.3382L36.0971 32.0789ZM23.5204 41.3702L23.2792 41.6077V41.9789C23.2792 42.4828 23.5359 43.4175 23.7894 43.837C24.4767 44.9741 25.8629 45.7782 27.1363 45.7782H27.5131L27.7542 45.5406C28.0437 45.2556 28.0697 44.8254 27.8162 44.517L27.6371 44.2991L27.0056 44.2144C26.6063 44.1609 26.2127 44.0316 25.9346 43.8626C25.3487 43.5064 24.9753 42.8929 24.8668 42.1076L24.7808 41.4855L24.5596 41.3091C24.2465 41.0594 23.8098 41.085 23.5204 41.3702Z" fill="black"/>
</svg>
