<svg width="56" height="56" viewBox="0 0 56 56" fill="none" xmlns="http://www.w3.org/2000/svg">
<path fill-rule="evenodd" clip-rule="evenodd" d="M14.3974 8.10906C14.0634 8.295 14.0057 8.51391 14.0027 9.60688C13.9985 11.1627 14.2788 11.8309 15.1473 12.3359L15.5503 12.5703L15.553 19.172L15.5556 25.7737L15.2029 25.9616C13.6558 26.786 13.6238 29.1063 15.1473 29.9922L15.5503 30.2266V36.8281V43.4297L15.1473 43.6641C14.2849 44.1655 14 44.8374 14 46.3698C14 47.467 14.0653 47.7147 14.4002 47.8887L14.6145 48H28H41.3855L41.5998 47.8887C41.9347 47.7147 42 47.467 42 46.3698C42 44.8374 41.7151 44.1655 40.8527 43.6641L40.4497 43.4297V36.8281V30.2266L40.8527 29.9922C42.3762 29.1063 42.3442 26.786 40.7971 25.9616L40.4444 25.7737L40.447 19.172L40.4497 12.5703L40.8527 12.3359C41.7151 11.8345 42 11.1626 42 9.63016C42 8.53297 41.9347 8.28531 41.5998 8.11133L41.3855 8L27.9844 8.00273L14.5833 8.00555L14.3974 8.10906ZM15.5556 10.0352C15.5556 10.5808 15.6915 10.8991 15.9812 11.0316L16.1851 11.125H28.0075H39.8299L40.0443 11.0137C40.3316 10.8645 40.4444 10.5863 40.4444 10.0276V9.5625H28H15.5556V10.0352ZM17.1137 19.2305L17.1163 25.7734L17.5194 26.0078C19.0429 26.8937 19.0108 29.214 17.4638 30.0384L17.1111 30.2263V36.7694V43.3125H17.838H18.5649L18.6195 41.5812C18.7012 38.9878 18.9002 37.5009 19.3733 35.9471C19.9612 34.0162 20.42 33.3347 23.1646 30.3153L25.3564 27.9041L24.5893 27.0731C24.1674 26.6161 23.2535 25.627 22.5583 24.875C20.7217 22.8885 20.2771 22.2567 19.6772 20.7817C18.9942 19.102 18.5948 16.3798 18.59 13.3711L18.5889 12.6875H17.85H17.1111L17.1137 19.2305ZM20.1754 14.2305C20.2351 15.9352 20.3219 16.9091 20.5065 17.9463L20.6291 18.6348L20.7562 18.5795C21.1915 18.39 22.1984 18.1498 22.9021 18.0677L23.7222 17.9719L24.5277 18.0659C25.9852 18.2361 27.1414 18.6652 28.35 19.4844C30.2801 20.7927 32.2216 21.1212 34.2523 20.4834L34.788 20.3152L34.9318 19.9886C35.3736 18.9854 35.6844 16.8811 35.7536 14.4258L35.8025 12.6875H27.962H20.1213L20.1754 14.2305ZM37.3074 14.4258C37.2481 16.4707 37.1611 17.3883 36.9052 18.6641C36.5622 20.3744 35.9368 21.8616 35.0822 23C34.8725 23.2793 33.7738 24.526 32.6405 25.7705L30.5801 28.0332L31.4155 28.9346C35.1149 32.9259 35.2227 33.0545 35.8027 34.1645C36.7726 36.0202 37.2094 38.1809 37.3088 41.6133L37.3579 43.3125H38.1234H38.8889V36.7694V30.2263L38.5362 30.0384C36.9892 29.214 36.9571 26.8937 38.4806 26.0078L38.8837 25.7734L38.8863 19.2305L38.8889 12.6875H38.1234H37.3578L37.3074 14.4258ZM22.7111 19.6455C22.4758 19.6871 22.0138 19.8108 21.6844 19.9204L21.0855 20.1196L21.155 20.3033C21.3046 20.6984 21.7027 21.4209 22.024 21.8803C22.2094 22.1454 23.4071 23.4941 24.6854 24.8777C25.9638 26.2611 27.0536 27.4856 27.1071 27.5988C27.1606 27.712 27.2263 28.0885 27.2529 28.4354C27.2795 28.7823 27.3546 29.2745 27.4198 29.5291C27.5807 30.1585 27.9211 31.0469 28.0012 31.0469C28.1885 31.0469 28.6877 29.2637 28.7524 28.3635L28.8021 27.6724L31.1817 25.0551C32.4903 23.6155 33.5858 22.3945 33.6159 22.3416L33.6705 22.2456L33.1881 22.3166C32.9227 22.3555 32.3381 22.3683 31.8889 22.3448C30.3887 22.2666 28.9537 21.7743 27.65 20.8906C26.8945 20.3785 25.9494 19.9332 25.2546 19.7618C24.6107 19.603 23.2931 19.5428 22.7111 19.6455ZM15.953 27.3278C15.2787 27.7032 15.5608 28.7812 16.3333 28.7812C16.7274 28.7812 17.1111 28.3996 17.1111 28.0076C17.1111 27.421 16.4658 27.0423 15.953 27.3278ZM39.2863 27.3278C38.6121 27.7032 38.8942 28.7812 39.6667 28.7812C40.0608 28.7812 40.4444 28.3996 40.4444 28.0076C40.4444 27.421 39.7991 27.0423 39.2863 27.3278ZM24.0106 31.6968C22.107 33.8094 21.8327 34.1564 21.4186 34.9757C20.7016 36.3944 20.1573 39.0588 20.2362 40.7634L20.2611 41.3003L20.5298 40.9237C20.9452 40.3415 22.2693 38.9955 23.0536 38.3582C23.4428 38.042 24.1215 37.5471 24.5619 37.2584C25.4513 36.6755 27.7432 35.5 27.9902 35.5C28.3166 35.5 29.9334 36.2844 31.1111 37.0141C32.5425 37.9009 34.3856 39.5273 35.2722 40.6859C35.4861 40.9655 35.6827 41.1962 35.709 41.1986C35.8116 41.2082 35.6144 38.9266 35.4193 37.8466C35.164 36.433 34.5327 34.8795 33.8276 33.9294C33.5463 33.5505 30.201 29.875 30.1373 29.875C30.1229 29.875 30.0536 30.0736 29.9833 30.3164C29.6443 31.4876 28.7284 33.2032 28.3495 33.3766C27.8318 33.6136 27.5173 33.4234 27.0079 32.5651C26.5904 31.8615 26.0318 30.5304 25.9366 30.0117C25.9069 29.8506 25.8603 29.7212 25.833 29.7241C25.8057 29.7271 24.9856 30.6148 24.0106 31.6968ZM27.0348 37.6373C24.3764 39.0082 22.4182 40.7356 20.9775 42.9805L20.7645 43.3125H28.0012H35.2381L34.8438 42.7256C33.709 41.0363 32.0219 39.4082 30.2851 38.3263C29.7196 37.9739 28.1411 37.1406 28.0392 37.1406C28.0164 37.1406 27.5644 37.3641 27.0348 37.6373ZM25.1745 40.3471C24.7447 40.6867 24.848 41.361 25.369 41.6169L25.6547 41.7571L25.9227 41.6446C26.2607 41.5028 26.4444 41.2427 26.4444 40.9063V40.6442L26.2171 40.4159L25.9898 40.1875H25.6832C25.4921 40.1875 25.3003 40.2477 25.1745 40.3471ZM28.3974 40.2966C28.0294 40.5014 27.9067 40.9516 28.1108 41.348C28.2816 41.6798 28.5339 41.75 29.5556 41.75C30.5772 41.75 30.8295 41.6798 31.0003 41.348C31.2085 40.9436 31.0641 40.4541 30.6855 40.2809C30.3976 40.1491 28.6407 40.1611 28.3974 40.2966ZM15.953 44.9841C15.6717 45.1406 15.5614 45.4104 15.5583 45.9492L15.5556 46.4375H28H40.4444V45.9724C40.4444 45.4137 40.3316 45.1355 40.0443 44.9863L39.8299 44.875L27.9844 44.8777L16.1389 44.8805L15.953 44.9841Z" fill="black"/>
</svg>
