<svg width="56" height="56" viewBox="0 0 56 56" fill="none" xmlns="http://www.w3.org/2000/svg">
<path fill-rule="evenodd" clip-rule="evenodd" d="M15.934 4.04598C15.6227 4.16626 15.5051 4.34616 15.3106 4.99978C15.0859 5.75505 15.086 7.20311 15.3107 7.96452C15.9288 10.058 17.6366 11.7746 19.5227 12.1983L20.0438 12.3154L20.3381 12.1932L20.6323 12.071L20.8643 11.4737L21.0963 10.8763L21.1025 9.87042L21.1087 8.86453L20.8562 8.08353C20.2828 6.30913 18.7833 4.69346 17.2694 4.21878C16.5771 4.00172 16.1812 3.95047 15.934 4.04598ZM38.9684 4.19528C37.2935 4.72755 35.8023 6.26784 35.2116 8.0757L34.9539 8.86453L34.954 9.87042C34.9541 11.0096 35.1986 11.9135 35.5589 12.1068C36.2753 12.4911 38.0587 11.7763 39.1751 10.6573L39.8576 9.97334L40.2866 9.10128C40.8161 8.02477 41.0712 6.88345 40.9828 5.98619C40.9093 5.23918 40.6799 4.51621 40.4283 4.23742C40.2246 4.01178 39.6021 3.99389 38.9684 4.19528ZM16.6244 6.41258C16.6244 7.68446 17.1882 8.97613 18.1061 9.80731C18.5035 10.1671 19.2551 10.6116 19.4662 10.6116C19.523 10.6116 19.5997 10.4092 19.6365 10.1616C19.7831 9.17614 19.1529 7.52192 18.2815 6.60434C17.9334 6.23766 16.9885 5.63783 16.7565 5.63603L16.6244 5.63508V6.41258ZM38.8099 5.86929C38.1785 6.18027 37.3123 7.05826 36.9709 7.73337C36.4793 8.7057 36.229 10.1027 36.4763 10.4941L36.5693 10.6413L37.0695 10.3985C37.7036 10.0909 38.5646 9.22887 38.947 8.51882C39.3083 7.84815 39.5858 6.5875 39.4931 6.03765C39.4557 5.81625 39.3937 5.63508 39.3552 5.63519C39.3168 5.63519 39.0714 5.74054 38.8099 5.86929ZM26.8143 10.1046C24.4081 11.6847 21.2309 15.6197 19.0949 19.6646C17.9812 21.7735 17.4546 23.389 17.2426 25.3455L17.1204 26.4733L17.2393 27.5161C17.4103 29.0179 17.7176 30.1055 18.3116 31.3118C18.95 32.6083 19.6972 33.6122 20.6191 34.4118C21.9779 35.5905 22.4072 36.0601 22.5284 36.5001C22.6767 37.0388 22.6802 39.531 22.5344 40.872C22.4369 41.7693 22.0836 43.7923 21.964 44.1383C21.9367 44.2175 20.5544 43.8652 17.9265 43.1091C15.7286 42.4768 13.7641 41.9582 13.5607 41.9567C12.792 41.9509 12.0859 42.7421 12.2274 43.4506C12.3049 43.8396 14.125 48.1927 14.5286 48.9551C15.1161 50.0644 16.4049 51.1666 17.6119 51.5918C18.7598 51.9962 19.5428 52.0248 28.4567 51.9885L37.0668 51.9534L37.6478 51.759C39.2839 51.2119 40.5844 50.1412 41.2654 48.7809C42.0016 47.3105 43.4583 43.6501 43.4583 43.271C43.4583 42.5022 42.9198 41.9531 42.1662 41.9531C41.9726 41.9531 40.1043 42.4484 38.0143 43.0537C35.9243 43.659 34.1817 44.1235 34.1418 44.0861C34.0198 43.9715 33.65 41.9689 33.522 40.7311C33.4556 40.0881 33.4178 38.8731 33.4381 38.0311L33.4748 36.5001L33.76 36.0139C33.9168 35.7466 34.3191 35.3205 34.6539 35.0671C37.0418 33.2602 38.4761 30.6535 38.8141 27.5057L38.9343 26.3883L38.8169 25.2963C38.5961 23.2404 37.9876 21.481 36.6825 19.1244C34.3314 14.8789 30.942 10.9108 28.6986 9.77746C28.0291 9.43926 27.7549 9.48691 26.8143 10.1046ZM27.1889 11.6559C24.5088 13.6533 20.7187 19.0148 19.2819 22.8412C19.0693 23.4076 18.7565 24.9389 18.6872 25.753C18.5418 27.4647 19.0431 29.68 19.931 31.2491C20.3858 32.0527 21.3699 33.1328 22.6666 34.2513L23.3736 34.8613L23.723 35.5721L24.0724 36.2829L24.1086 37.9797C24.1503 39.926 24.0171 41.4475 23.6419 43.3173C23.4972 44.0385 23.3923 44.6409 23.4086 44.6559C23.4251 44.671 24.0262 44.8571 24.7446 45.0695C26.1652 45.4896 26.811 45.7799 27.4341 46.2781L27.8378 46.6008L28.3321 46.2485C29.107 45.6961 29.6064 45.4801 31.1631 45.0239C31.9607 44.7902 32.6241 44.5872 32.6371 44.573C32.6501 44.5589 32.5491 43.9755 32.4127 43.2767C32.05 41.4192 31.919 39.8866 31.9597 37.9789L31.9958 36.2884L32.2828 35.6745C32.6561 34.8761 32.9805 34.4978 33.9784 33.6971C35.5134 32.4658 36.6558 30.6384 37.1289 28.6584L37.355 27.7118L37.3584 26.4941C37.3642 24.4991 37.0107 23.1099 35.9497 20.9566C34.5874 18.192 32.678 15.4239 30.7228 13.3788C29.5847 12.1883 28.3267 11.1426 28.0341 11.1437C27.9469 11.144 27.5666 11.3745 27.1889 11.6559ZM7.63643 12.5756C7.37052 12.6578 7.06679 12.8204 6.96136 12.9372L6.76972 13.1494L6.82635 13.7745C6.86153 14.1637 7.01249 14.6736 7.22653 15.1262L7.57019 15.8528L8.32049 16.5947C9.63471 17.8941 11.2 18.5196 12.874 18.4142C14.852 18.2898 15.2542 17.8243 14.7224 16.275C14.1333 14.5593 12.4748 13.0684 10.5979 12.5678C9.87389 12.3748 8.27337 12.379 7.63643 12.5756ZM45.1408 12.6742C43.1765 13.3222 41.6703 14.8599 41.1887 16.7085L41.0255 17.3352L41.144 17.6231L41.2627 17.9109L41.8585 18.1344C44.7597 19.2223 48.6404 17.0446 49.2645 13.9785L49.3873 13.3747L49.2661 13.1479C49.1996 13.0232 48.9233 12.8205 48.6522 12.6977L48.1595 12.4743L47.0502 12.4423L45.941 12.4102L45.1408 12.6742ZM8.38408 13.9912C8.38408 14.2353 8.83033 14.9833 9.24488 15.434C9.80089 16.0386 10.5576 16.5163 11.3518 16.764C12.0386 16.9783 13.1885 17.0341 13.2968 16.8584C13.4121 16.6714 12.8045 15.7089 12.2237 15.1583C11.9141 14.8649 11.3405 14.4746 10.9487 14.2908L10.2366 13.9569L9.31028 13.9125L8.38408 13.8681V13.9912ZM45.7297 14.0421C44.6619 14.3805 43.7149 15.0702 43.1467 15.9229C42.9114 16.2762 42.7188 16.6291 42.7188 16.7072C42.7188 17.1065 44.4002 16.9637 45.4265 16.477C46.3999 16.0155 47.6841 14.6549 47.6841 14.085V13.894L46.9182 13.9011C46.4969 13.905 45.9621 13.9684 45.7297 14.0421ZM27.1261 15.2558C25.966 16.0161 24.2716 17.9609 23.1362 19.8357C22.4477 20.9724 21.7256 22.5268 21.5188 23.3176C21.2959 24.1698 21.272 26.003 21.4731 26.8118C22.0701 29.2126 23.8397 31.0024 26.2381 31.6316C27.131 31.8658 28.8034 31.8703 29.7641 31.6409C31.9439 31.1206 33.6876 29.5064 34.4256 27.3255L34.7249 26.4412L34.7296 25.2235L34.7342 24.0059L34.5001 23.182C34.1208 21.8474 32.9279 19.6291 31.7651 18.0963C30.504 16.4338 28.6818 14.8469 28.0341 14.8469C27.8778 14.8469 27.4692 15.031 27.1261 15.2558ZM27.4405 16.8468C25.7249 18.2163 23.3092 22.022 22.9161 23.975C22.7148 24.9753 22.7127 25.3919 22.9049 26.3008C23.3158 28.2438 24.7307 29.7307 26.6079 30.1924C27.4399 30.3971 28.9228 30.3527 29.7403 30.0987C31.6251 29.5131 32.9346 27.9333 33.2323 25.8856L33.3551 25.0411L33.1731 24.0999C32.8616 22.4888 31.4361 19.9286 29.8039 18.0485C29.1627 17.3101 28.2043 16.4352 28.0364 16.4352C27.9922 16.4352 27.724 16.6204 27.4405 16.8468ZM27.2665 22.0502C26.2904 22.2959 25.3801 23.0644 24.9499 24.0059L24.7081 24.5353L24.7089 25.3824L24.7099 26.2294L25.0862 26.9177C25.5251 27.7206 26.2352 28.3227 27.0233 28.5606C28.6028 29.037 30.1815 28.3818 30.982 26.9177L31.3583 26.2294L31.3581 25.3824L31.3579 24.5353L31.1164 23.9961C30.8175 23.329 30.0431 22.5512 29.3909 22.2631C28.8122 22.0075 27.8279 21.9088 27.2665 22.0502ZM6.82582 22.9488C5.47123 23.2437 3.75925 24.4061 3.57068 25.1589L3.5 25.4414L3.80141 25.8776C4.3739 26.7054 5.66573 27.4905 6.88382 27.751C7.59481 27.9029 8.84396 27.9046 9.56742 27.7545C10.4895 27.5631 11.6028 26.9694 12.2434 26.3275L12.8212 25.7484V25.369V24.9897L12.2116 24.3919C10.8688 23.0751 8.79631 22.5198 6.82582 22.9488ZM46.8918 22.8498C46.7756 22.878 46.4665 22.9539 46.2051 23.0186C45.3985 23.2182 44.3504 23.8299 43.781 24.4331L43.247 24.9991V25.345V25.6909L43.9073 26.3308C44.9733 27.3638 46.2859 27.8706 47.8954 27.8706C48.3725 27.8706 49.0512 27.7958 49.4036 27.7043C51.092 27.2657 52.6801 25.9633 52.4835 25.1783C52.3983 24.8384 51.3385 23.8315 50.7482 23.5296C49.8378 23.064 49.1328 22.8797 48.1067 22.8387C47.5547 22.8167 47.008 22.8217 46.8918 22.8498ZM27.4102 23.5603C26.6965 23.7886 26.1349 24.615 26.1331 25.4393C26.1322 25.8597 26.5721 26.6274 26.9631 26.8878C27.6307 27.3324 28.4375 27.3324 29.1051 26.8878C29.4961 26.6274 29.936 25.8597 29.9351 25.4393C29.9333 24.5897 29.3519 23.779 28.578 23.5466C28.097 23.4021 27.897 23.4045 27.4102 23.5603ZM7.01112 24.4341C6.29305 24.6359 5.3732 25.1458 5.3732 25.3421C5.3732 25.4225 5.74771 25.6788 6.20536 25.9118L7.03764 26.3353H8.21262H9.38771L10.0744 26.0033C10.4521 25.8205 10.8528 25.6006 10.9649 25.5143L11.1687 25.3575L10.741 25.0738C9.68616 24.3742 8.15716 24.112 7.01112 24.4341ZM46.8437 24.3793C46.2866 24.497 45.334 24.9468 45.1363 25.1855L44.9964 25.3544L45.3102 25.6075C45.8087 26.0092 46.7111 26.3057 47.6113 26.3634L48.4364 26.4162L49.113 26.2327C49.4849 26.1317 50.016 25.9051 50.2931 25.729L50.7967 25.4088L50.4312 25.1029C49.6749 24.4701 48.0074 24.1338 46.8437 24.3793ZM11.8695 32.3274C9.50075 32.5833 7.25019 34.5357 6.79592 36.7289L6.67305 37.3219L6.87695 37.5992C7.34654 38.2381 9.30647 38.4969 10.6555 38.098C12.7932 37.4659 14.4492 35.8408 14.8893 33.9429C15.0294 33.3393 14.9747 32.9891 14.7074 32.7787C14.2727 32.4365 12.8923 32.2169 11.8695 32.3274ZM42.312 32.3599C42.0012 32.4391 41.6209 32.5993 41.4669 32.716L41.1869 32.9278L41.1972 33.5754L41.2073 34.223L41.5913 35.0018C41.8522 35.5309 42.2011 36.0067 42.6795 36.4863L43.3837 37.192L44.3064 37.655C45.7565 38.3825 47.2534 38.5331 48.5576 38.0823C49.1724 37.8699 49.3063 37.6425 49.2459 36.9125C49.1413 35.6482 47.9626 33.9878 46.5689 33.1413C45.287 32.3626 43.5509 32.044 42.312 32.3599ZM42.8992 33.768L42.71 33.8174L42.7764 34.0469C43.0312 34.9288 44.3072 36.1293 45.4417 36.5549C46.1302 36.813 47.3408 36.9371 47.5785 36.7738L47.7369 36.665L47.4741 36.1591C46.6675 34.606 44.3445 33.3918 42.8992 33.768ZM11.1745 33.9932C10.082 34.3718 9.06053 35.2158 8.59992 36.1205C8.31277 36.6848 8.32249 36.7271 8.75627 36.7977C9.81473 36.9698 11.4481 36.3546 12.3607 35.4401C12.8576 34.9422 13.3494 34.1812 13.3494 33.9102C13.3494 33.7255 11.7738 33.7856 11.1745 33.9932ZM13.8776 43.6209C13.8776 43.9032 15.8224 48.2836 16.1405 48.7179C16.5896 49.3312 17.5681 50.0246 18.3518 50.2851L18.8958 50.4659L23.6234 50.5046C26.4852 50.5281 28.351 50.5047 28.351 50.4452C28.351 50.3912 28.2117 50.0084 28.0415 49.5946C27.5003 48.2794 26.8986 47.5841 25.8333 47.0431C25.4513 46.849 14.243 43.5414 13.9674 43.5414C13.9181 43.5414 13.8776 43.5772 13.8776 43.6209ZM36.2744 45.0819C33.3982 45.9154 30.8073 46.6712 30.5168 46.7615C29.7772 46.9913 28.9281 47.5714 28.9473 47.8337C28.9604 48.012 29.2209 48.6637 29.8872 50.1856L30.038 50.5297L32.9713 50.5276C36.2569 50.5253 37.0793 50.4434 37.9457 50.0326C38.6435 49.7017 39.4617 48.9711 39.8158 48.3627C40.0027 48.0414 41.3507 44.9252 41.844 43.6737C41.8753 43.5945 41.8174 43.5465 41.7 43.5539C41.5922 43.5608 39.1506 44.2484 36.2744 45.0819Z" fill="black"/>
</svg>
