<svg width="56" height="56" viewBox="0 0 56 56" fill="none" xmlns="http://www.w3.org/2000/svg">
<path fill-rule="evenodd" clip-rule="evenodd" d="M31.8001 8.16804C31.4037 8.34789 31.142 8.67933 31.04 9.13064C30.9983 9.31531 31.0518 9.89229 31.1855 10.7002C31.3018 11.4028 31.3978 12.0475 31.399 12.1328L31.4011 12.2879L30.9763 12.3947L30.5515 12.5015L30.1006 12.9547C29.0714 13.9889 29.254 15.4788 30.5066 16.2685L30.8418 16.4798L30.7587 16.9361C30.5711 17.967 30.0071 18.8359 29.074 19.5317C27.9101 20.3996 27.2072 21.3158 26.8117 22.4804L26.6143 23.0615L26.5688 28.6842L26.5232 34.3069L26.1479 34.4661L25.7728 34.6252L25.6695 34.1171C25.4066 32.8233 24.5332 31.2695 23.5341 30.3177L22.9879 29.7974V27.6912C22.9879 26.2988 22.951 25.4603 22.8791 25.2171C22.7338 24.7261 21.9924 23.9856 21.5007 23.8405C21.2535 23.7676 20.3778 23.7318 18.8381 23.7318H16.5438V22.9721V22.2123H16.666C16.7333 22.2123 17.0709 22.0711 17.4162 21.8985C18.1793 21.5172 18.6964 20.9808 19.0798 20.1725L19.3631 19.5754L19.3588 18.7263L19.3544 17.8771L19.065 17.1491C18.7223 16.2871 17.7913 14.8601 16.9012 13.8325C15.9494 12.7339 15.6958 12.7339 14.7486 13.8338C13.859 14.8668 12.9313 16.2918 12.5905 17.1491L12.3011 17.8771L12.2968 18.7263L12.2925 19.5754L12.5757 20.1725C12.9592 20.9808 13.4762 21.5172 14.2393 21.8985C14.5847 22.0711 14.9223 22.2123 14.9895 22.2123H15.1118V22.9721V23.7318H12.8175C11.2778 23.7318 10.402 23.7676 10.1548 23.8405C9.66317 23.9856 8.92174 24.7261 8.77647 25.2171L8.66764 25.585V33.9545V42.324H7.81335H6.95896L6.72948 42.5532L6.5 42.7824L6.53303 44.0567L6.56596 45.331L6.89945 46.0048C7.30113 46.8166 7.82006 47.3237 8.65153 47.7171L9.2494 48H28H46.7506L47.3485 47.7171C48.1799 47.3237 48.6989 46.8166 49.1006 46.0048L49.434 45.331L49.467 44.0567L49.5 42.7824L49.2705 42.5532L49.041 42.324H48.0002H46.9594L47.0063 42.2123C47.0321 42.1509 47.121 41.8822 47.2037 41.6154C47.582 40.3965 46.9693 38.9814 45.8072 38.3892L45.438 38.2011L45.5038 38.0502C45.5401 37.9673 45.6486 37.6782 45.7449 37.4078L45.9199 36.9162L45.8692 36.362C45.7819 35.4094 45.1887 34.5133 44.369 34.0956L44.0059 33.9106L44.0718 33.7597C44.1081 33.6768 44.2164 33.3877 44.3126 33.1173L44.4875 32.6257L44.4421 32.117C44.3496 31.0803 43.716 30.167 42.7978 29.7472L42.3203 29.5288V26.5106V23.4923L42.1435 22.8019C41.8091 21.4963 41.0807 20.4695 39.8309 19.542C38.8824 18.8382 38.3185 17.9743 38.1295 16.9361L38.0465 16.4798L38.3817 16.2685C39.6342 15.4788 39.8168 13.9889 38.7876 12.9547L38.3367 12.5015L37.912 12.3947L37.4872 12.2879L37.4892 12.1328C37.4904 12.0475 37.5864 11.4028 37.7027 10.7002C37.8408 9.86583 37.8905 9.31781 37.8459 9.12036C37.744 8.66905 37.4439 8.30606 37.039 8.14427L36.6781 8L34.42 8.00197L32.1618 8.00393L31.8001 8.16804ZM32.4751 9.57667C32.4751 9.72496 32.7968 11.719 32.8805 12.0894L32.926 12.2905H34.4441H35.9622L36.0077 12.0894C36.0914 11.719 36.4132 9.72496 36.4132 9.57667V9.43017H34.4441H32.4751V9.57667ZM31.0838 13.9401C30.9452 14.0784 30.8641 14.2616 30.8641 14.4358C30.8641 14.6099 30.9452 14.7931 31.0838 14.9314L31.3034 15.1508H34.4441H37.5848L37.8045 14.9314C37.943 14.7931 38.0242 14.6099 38.0242 14.4358C38.0242 14.2616 37.943 14.0784 37.8045 13.9401L37.5848 13.7207H34.4441H31.3034L31.0838 13.9401ZM15.3157 15.3988C13.6238 17.5755 13.2801 19.0022 14.1916 20.0656C14.4585 20.3771 14.8969 20.6927 15.0625 20.6927C15.0897 20.6927 15.1118 20.3491 15.1118 19.9289V19.165L15.3315 18.9457C15.4699 18.8073 15.6534 18.7263 15.8278 18.7263C16.0021 18.7263 16.1856 18.8073 16.3241 18.9457L16.5438 19.165V19.9289C16.5438 20.3491 16.5659 20.6927 16.593 20.6927C16.7587 20.6927 17.1971 20.3771 17.464 20.0656C18.3754 19.0022 18.0318 17.5755 16.3398 15.3988C16.0829 15.0681 15.8524 14.7975 15.8278 14.7975C15.8032 14.7975 15.5727 15.0681 15.3157 15.3988ZM32.2581 16.7821C32.0578 17.757 31.9678 18.0514 31.6918 18.634L31.3756 19.3016L30.7332 19.9301C30.3799 20.2758 29.8092 20.8066 29.4648 21.1097C29.0429 21.4809 28.7428 21.8403 28.545 22.2109C28.3834 22.5136 28.2673 22.7772 28.2869 22.7968C28.3065 22.8164 28.6224 22.7282 28.9889 22.6009L29.6552 22.3695L30.5505 22.3268C32.1221 22.2517 33.4391 22.6799 34.5784 23.6362C35.8578 24.7103 36.5921 25.0573 37.7557 25.1377C38.7533 25.2067 39.9981 24.8366 40.6962 24.2634L40.9068 24.0905L40.8058 23.5111C40.6033 22.3499 40.0724 21.5061 39.0816 20.7709C38.2146 20.1276 37.539 19.358 37.1856 18.6115C36.9191 18.0486 36.8301 17.7555 36.6301 16.7821L36.5888 16.581H34.4441H32.2995L32.2581 16.7821ZM29.8348 23.8648C29.1687 24.0453 28.9309 24.1483 28.4428 24.4674L28 24.7569V29.2964V33.836L28.8418 33.7769L29.6834 33.7178L29.927 33.961L30.1706 34.2043L30.1242 35.6943L30.0779 37.1844L29.9023 37.8101C29.4053 39.5814 28.4217 41.0842 27.105 42.0841L26.7917 42.3221L28.6585 42.323L30.5252 42.324L30.4601 42.1676C29.9943 41.0481 30.0705 40.1325 30.7062 39.2096C30.9385 38.8724 31.1358 38.7133 31.8879 38.257L32.0352 38.1676L31.8336 37.7654L31.6322 37.3631L31.6321 36.6034V35.8436L31.8745 35.3772C32.1652 34.8184 32.6195 34.3462 33.104 34.0993C33.2996 33.9997 33.4596 33.9064 33.4596 33.8921C33.4596 33.8777 33.3693 33.6875 33.2588 33.4693L33.0582 33.0726L33.0628 32.3128L33.0672 31.5531L33.264 31.1481C33.5707 30.5172 33.9345 30.1367 34.5493 29.8037L35.1154 29.4972L38.0018 29.4692L40.8882 29.4413V27.6641V25.8869L40.4184 26.0945C40.16 26.2085 39.6298 26.3727 39.2403 26.4593L38.5322 26.6166L37.6741 26.5666C36.2125 26.4816 35.184 26.0412 33.9432 24.969C32.7015 23.8961 31.2044 23.4937 29.8348 23.8648ZM10.3194 25.3815L10.0997 25.6008V33.9625V42.324L13.9259 42.323L17.7521 42.3221L17.4388 42.0841C16.1356 41.0944 15.1139 39.5454 14.6506 37.8566L14.4661 37.1844L14.4196 35.6943L14.3732 34.2043L14.617 33.9609L14.8607 33.7175L15.6351 33.773C16.5161 33.836 17.521 34.0779 18.263 34.4057L18.7701 34.6296L18.8739 34.1193C19.1372 32.8232 20.0098 31.2702 21.0097 30.3177L21.5559 29.7974V27.6991V25.6008L21.3362 25.3815L21.1165 25.162H15.8278H10.539L10.3194 25.3815ZM35.2899 31.0084C34.6982 31.2659 34.3564 31.9519 34.4833 32.6276C34.5617 33.0449 35.0082 33.5389 35.4146 33.6578C35.6288 33.7205 36.8458 33.7441 38.9351 33.7259L42.1284 33.6983L42.3754 33.514C42.5113 33.4126 42.7055 33.2187 42.807 33.0829L42.9915 32.836V32.3217V31.8073L42.7336 31.4696C42.5917 31.2838 42.3413 31.0758 42.1771 31.0073L41.8785 30.8827L38.7207 30.8862L35.5629 30.8897L35.2899 31.0084ZM21.7009 31.6253C20.8631 32.6046 20.3174 33.8092 20.1682 35.0086L20.1052 35.5145L20.488 35.8578C20.9456 36.2682 21.7984 37.3971 22.0481 37.9229C22.1466 38.1301 22.2473 38.2996 22.2719 38.2996C22.2965 38.2996 22.3972 38.1301 22.4956 37.9229C22.7446 37.3987 23.5978 36.2687 24.0524 35.8609L24.4316 35.5207L24.3701 35.0118C24.2806 34.2705 23.9348 33.2376 23.5784 32.6465C23.1498 31.9356 22.4622 31.1508 22.268 31.1508C22.1793 31.1508 21.9241 31.3643 21.7009 31.6253ZM33.8579 35.299C33.2662 35.5564 32.9244 36.2424 33.0513 36.9181C33.1297 37.3357 33.5764 37.8296 33.9826 37.9478C34.2012 38.0115 35.8455 38.0341 38.9351 38.016L43.5603 37.9888L43.8074 37.8045C43.9433 37.7031 44.1375 37.5092 44.239 37.3734L44.4236 37.1265V36.6122V36.0978L44.1656 35.7601C44.0238 35.5743 43.7733 35.3663 43.6091 35.2978L43.3105 35.1732L38.7207 35.1767L34.1309 35.1802L33.8579 35.299ZM15.8539 36.1989L15.907 37.1353L16.1703 37.8983C16.3151 38.3179 16.5692 38.8906 16.7349 39.171C17.1451 39.8653 18.3421 41.0468 19.0498 41.4559C19.6829 41.8219 20.8713 42.2346 21.292 42.2346H21.5559V41.6615C21.5559 38.8677 19.7009 36.3222 17.0538 35.4837C16.6697 35.3621 16.2307 35.2626 16.0782 35.2626H15.8008L15.8539 36.1989ZM27.4142 35.5103C26.3914 35.8567 25.7335 36.2742 24.9122 37.0982C24.0795 37.9335 23.696 38.5397 23.3304 39.5989L23.0671 40.3619L23.014 41.2983L22.961 42.2346H23.2383C23.3908 42.2346 23.8298 42.1352 24.2139 42.0135C26.861 41.175 28.716 38.6295 28.716 35.8357V35.2626L28.4251 35.2644C28.2651 35.2655 27.8103 35.3762 27.4142 35.5103ZM32.4259 39.5895C31.8342 39.8469 31.4924 40.5329 31.6193 41.2086C31.6978 41.6263 32.1445 42.1202 32.5505 42.238C32.7716 42.3022 34.8445 42.3244 38.935 42.3062L44.9922 42.2793L45.2394 42.095C45.3753 41.9937 45.5695 41.7997 45.671 41.6639L45.8556 41.417V40.9027V40.3883L45.5976 40.0506C45.4558 39.8648 45.2054 39.6568 45.0411 39.5883L44.7425 39.4637L38.7207 39.4672L32.6988 39.4707L32.4259 39.5895ZM7.95163 44.2578C7.95163 45.0337 8.11255 45.4405 8.61985 45.9472C8.90375 46.2306 9.20671 46.4374 9.43879 46.5058L9.80718 46.6145H28H46.1928L46.5612 46.5058C47.0528 46.3608 47.7943 45.6203 47.9395 45.1293C47.9994 44.9269 48.0484 44.5348 48.0484 44.2578V43.7542H28H7.95163V44.2578Z" fill="black"/>
</svg>
