<svg width="56" height="56" viewBox="0 0 56 56" fill="none" xmlns="http://www.w3.org/2000/svg">
<path fill-rule="evenodd" clip-rule="evenodd" d="M17.1883 8.05543C13.3414 8.49074 9.72639 11.1808 7.8678 14.9912C7.26317 16.2308 6.98278 17.0472 6.72914 18.3067C6.26344 20.6192 6.51558 23.6341 7.41276 26.482C9.24913 32.3115 13.7277 37.9958 20.698 43.3435C22.6882 44.8705 26.6306 47.4301 27.6744 47.873L27.9737 48L28.4864 47.7434C29.956 47.0077 33.0922 44.9517 35.2038 43.3396C42.9731 37.4081 47.7125 30.9109 49.031 24.3843C49.1474 23.8079 49.2684 23.0188 49.2998 22.6311C49.3312 22.2432 49.3891 21.9056 49.4284 21.881C49.4678 21.8562 49.5 21.3378 49.5 20.729C49.5 20.0127 49.4704 19.6406 49.4161 19.6746C49.3661 19.7061 49.3323 19.6019 49.3323 19.4163C49.3323 18.9088 49.0187 17.4981 48.6976 16.5612C47.0971 11.8917 43.0975 8.52718 38.5833 8.05288C36.27 7.80985 33.4501 8.48844 31.4343 9.77322C30.2865 10.5047 28.8771 11.8027 28.2438 12.7116C28.1058 12.9096 27.974 13.0716 27.9509 13.0716C27.9278 13.0716 27.796 12.9096 27.658 12.7116C27.0465 11.834 25.6591 10.5455 24.5474 9.82261C22.5168 8.50215 19.5457 7.78865 17.1883 8.05543ZM17.3554 9.50635C13.0042 9.97717 9.22858 13.6284 8.15624 18.4022L7.96607 19.2489L7.96457 20.8242L7.96297 22.3995L8.15314 23.4964C8.65112 26.3687 9.71776 28.9762 11.5535 31.8089C14.2918 36.0346 18.9182 40.5002 24.3035 44.1156C25.9081 45.1928 27.813 46.3701 27.9515 46.3701C28.0019 46.3701 28.6167 46.0196 29.3176 45.5912C35.7402 41.6662 41.1997 36.6606 44.3497 31.8089C47.2436 27.3515 48.5054 22.4981 47.7784 18.6201C46.9289 14.0886 43.3591 10.3676 39.1028 9.57703C38.2377 9.41643 36.5958 9.4568 35.6053 9.66304C34.7001 9.85156 33.7043 10.1932 32.9659 10.5687C31.4986 11.3147 29.8725 12.7793 29.001 14.1397C28.4167 15.0518 28.3447 15.119 27.9509 15.119C27.5594 15.119 27.4849 15.0507 26.9179 14.1709C24.8675 10.9902 21.0138 9.11048 17.3554 9.50635ZM14.4633 14.6154C12.7196 15.1564 12.3993 17.496 13.9287 18.5211L14.3674 18.815V20.0889V21.3627L15.2867 22.3069L16.206 23.2511L17.8022 23.279L19.3983 23.3069V24.2394V25.172L18.7249 26.1928C18.3545 26.7543 18.0159 27.3088 17.9723 27.425L17.8933 27.6364H17.1382H16.3832L16.2215 27.3171C15.6278 26.1449 14.0564 25.8206 12.9863 26.6496C12.6546 26.9065 12.2847 27.5975 12.2192 28.0828C12.1442 28.6389 12.3645 29.3149 12.7754 29.7888L13.1151 30.1809L13.5945 30.3646L14.0739 30.5483L14.5186 30.5031C15.1591 30.438 15.7682 30.0669 16.1243 29.5248L16.4137 29.084H17.1934H17.9729V30.3327V31.5814L19.021 32.6571L20.0691 33.733V34.3407C20.0691 35.0808 20.1578 35.3406 20.4638 35.4967C20.5926 35.5625 21.2074 35.7416 21.8299 35.895C22.4525 36.0483 23.0046 36.2166 23.0567 36.2692C23.1089 36.3217 23.2726 36.7478 23.4206 37.2161L23.6898 38.0677L23.9351 38.3018L24.1804 38.536H25.4004C26.1312 38.536 26.6938 38.4979 26.8035 38.4412C26.9042 38.389 27.2036 38.1315 27.4688 37.8691L27.9509 37.3918L28.433 37.8691C28.6982 38.1315 28.9976 38.389 29.0983 38.4412C29.208 38.4979 29.7706 38.536 30.5014 38.536H31.7214L31.9667 38.3018L32.212 38.0677L32.4812 37.2161C32.6291 36.7478 32.7929 36.3217 32.8451 36.2692C32.8972 36.2166 33.4493 36.0483 34.0718 35.895C34.6944 35.7416 35.3092 35.5625 35.438 35.4967C35.744 35.3406 35.8327 35.0808 35.8327 34.3407V33.733L36.8808 32.6571L37.9289 31.5814V30.3327V29.084H38.7084H39.488L39.7775 29.5248C40.3099 30.3351 41.2397 30.6802 42.1595 30.4087L42.6423 30.2661L43.0477 29.8545L43.453 29.4428L43.592 28.9572C43.8207 28.1584 43.6194 27.3828 43.0278 26.7819C42.0561 25.7951 40.3098 26.0743 39.6803 27.3171L39.5186 27.6364H38.7636H38.0085L37.9295 27.425C37.8859 27.3088 37.5473 26.7543 37.1768 26.1928L36.5035 25.172V24.2394V23.3069L38.0996 23.279L39.6958 23.2511L40.6151 22.3069L41.5344 21.3627V20.0889V18.815L41.9731 18.5211C42.2407 18.3417 42.5104 18.0637 42.6648 17.8079L42.9179 17.3889L42.9167 16.7009L42.9155 16.0131L42.7685 15.7377C42.3615 14.9754 41.6841 14.569 40.8217 14.5699L40.2347 14.5705L39.8993 14.7521C38.3742 15.5779 38.288 17.713 39.7447 18.58L40.1089 18.7967V19.7918V20.787L39.6244 21.2739L39.1398 21.7609H37.5928H36.0458L35.3506 21.0584L34.6555 20.3559L33.6975 20.3273L32.7394 20.2989L32.4344 19.3693C32.2343 18.7595 32.0677 18.3957 31.95 18.312L31.7706 18.1845H30.4395H29.1085L28.5297 18.7519L27.9509 19.3194L27.3721 18.7519L26.7933 18.1845H25.4623H24.1312L23.9518 18.312C23.8341 18.3957 23.6675 18.7595 23.4674 19.3693L23.1624 20.2989L22.2043 20.3273L21.2463 20.3559L20.5512 21.0584L19.856 21.7609H18.3039H16.7518L16.2724 21.2688L15.7928 20.7767V19.7867V18.7967L16.1571 18.58C17.6096 17.7154 17.5256 15.5551 16.0085 14.7614C15.6261 14.5614 14.8684 14.4898 14.4633 14.6154ZM14.6125 16.2194C14.0305 16.8104 14.63 17.6698 15.4118 17.3652C15.5775 17.3006 15.7928 16.8962 15.7928 16.6494C15.7928 16.3919 15.3505 15.9705 15.0801 15.9705C14.946 15.9705 14.7602 16.0693 14.6125 16.2194ZM40.354 16.2194C40.0809 16.4968 40.0497 16.714 40.2316 17.0713C40.4422 17.4849 40.9893 17.5536 41.3285 17.209C41.6171 16.9161 41.602 16.537 41.2893 16.2194C40.9712 15.8964 40.6721 15.8964 40.354 16.2194ZM24.6798 20.274L24.4816 20.9159L25.1262 21.5745L25.7708 22.233V22.7668V23.3005L25.0791 23.2758L24.3873 23.2511L24.3599 23.0382C24.3443 22.9165 24.1118 22.5973 23.8173 22.2931L23.3022 21.7609H22.5846H21.867L21.3454 22.2954L20.8238 22.8299V23.9795V25.129L21.4169 25.7228C22.1321 26.4388 22.2492 26.6475 22.2492 27.2064V27.6364H21.5365H20.8238V27.4408C20.8238 27.3256 20.6892 27.1118 20.4963 26.9206L20.1689 26.5959L19.7836 27.1791L19.3983 27.7624V29.3851V31.008L19.7337 31.3406L20.0691 31.6732V31.1024V30.5316H20.7802H21.4914L21.5139 32.421L21.5365 34.3105L22.4939 34.5542L23.4512 34.7979L23.8983 34.3494L24.3454 33.901V33.6639V33.4268H25.0581H25.7708V33.9475V34.4683L25.1236 35.1437L24.4763 35.8191L24.6834 36.4325L24.8904 37.0458L25.5428 37.0708L26.195 37.0957L26.6957 36.6107L27.1963 36.1258V28.3659V20.606L26.7117 20.1191L26.2271 19.6321H25.5526H24.878L24.6798 20.274ZM29.1851 20.1242L28.7055 20.6163V28.3711V36.1258L29.2061 36.6107L29.7068 37.0957L30.359 37.0708L31.0114 37.0458L31.2184 36.4325L31.4255 35.8191L30.7782 35.1437L30.131 34.4683V33.9475V33.4268H30.8437H31.5564V33.6639V33.901L32.0085 34.3544L32.4606 34.8078L33.413 34.5603L34.3653 34.3128L34.3879 32.4222L34.4104 30.5316H35.1215H35.8327V31.1024V31.6732L36.1681 31.3406L36.5035 31.008V29.3851V27.7624L36.1182 27.1791L35.7329 26.5959L35.4055 26.9206C35.2126 27.1118 35.078 27.3256 35.078 27.4408V27.6364H34.3653H33.6526V27.2064C33.6526 26.6475 33.7697 26.4388 34.4849 25.7228L35.078 25.129V23.9747V22.8204L34.5517 22.2906L34.0254 21.7609H33.3125H32.5996L32.0845 22.2931C31.79 22.5973 31.5575 22.9165 31.5419 23.0382L31.5145 23.2511L30.8227 23.2758L30.131 23.3005V22.7668V22.233L30.7756 21.5745L31.4202 20.9159L31.222 20.274L31.0238 19.6321H30.3442H29.6645L29.1851 20.1242ZM6.51851 20.8242C6.51851 21.4565 6.53168 21.7152 6.54786 21.399C6.56396 21.0828 6.56396 20.5656 6.54786 20.2494C6.53168 19.9332 6.51851 20.1919 6.51851 20.8242ZM24.3454 25.6546V26.568L23.739 27.188L23.1325 27.808L23.6588 28.3396L24.185 28.8712L24.9779 28.0462L25.7708 27.2212V25.9812V24.7412H25.0581H24.3454V25.6546ZM30.131 25.9887V27.2361L30.9254 28.0537L31.72 28.8712L32.2446 28.3396L32.7693 27.808L32.1628 27.188L31.5564 26.568V25.6546V24.7412H30.8437H30.131V25.9887ZM13.8621 27.8516C13.479 28.2658 13.6667 28.9226 14.2023 29.0421C14.4716 29.1021 14.9051 28.9113 14.9861 28.697C15.2766 27.9283 14.4007 27.2695 13.8621 27.8516ZM41.0694 27.8455C40.9283 27.9888 40.8636 28.1494 40.8636 28.3564C40.8636 29.1037 41.8232 29.3261 42.1636 28.6577C42.5224 27.953 41.6217 27.2845 41.0694 27.8455ZM23.3975 30.5215L22.92 31.03V31.8452V32.6605H23.6327H24.3454V32.1323V31.6041L24.6152 31.3214L24.885 31.0387L24.38 30.5259L23.875 30.0131L23.3975 30.5215ZM31.5163 30.5298L31.0185 31.0406L31.2875 31.3224L31.5564 31.6041V32.1323V32.6605H32.277H32.9975L32.9687 31.8097L32.9399 30.9589L32.477 30.489L32.014 30.0189L31.5163 30.5298Z" fill="black"/>
</svg>
