<svg width="56" height="56" viewBox="0 0 56 56" fill="none" xmlns="http://www.w3.org/2000/svg">
<path fill-rule="evenodd" clip-rule="evenodd" d="M28.1149 6.09695C27.6385 6.37015 27.6137 6.63412 27.9904 7.42191L28.2687 8.00413L28.217 8.89986C28.1511 10.0387 28.0368 10.4536 27.775 10.5042C27.6663 10.5252 27.0659 10.6086 26.4407 10.6896C25.8155 10.7706 24.8684 10.9377 24.336 11.0612C23.8035 11.1846 23.2207 11.3078 23.0407 11.335L22.7134 11.3844L22.6094 10.8587C22.209 8.83528 21.1986 7.45371 20.1737 7.52859L19.7943 7.55627L19.6275 7.84281L19.4608 8.12936L19.5681 8.33546C19.6271 8.44886 19.8865 8.76506 20.1447 9.03825C20.4027 9.31136 20.6998 9.70324 20.8048 9.90908C20.9744 10.2416 21.3372 11.9576 21.2519 12.0238C21.2335 12.0381 20.8154 12.2638 20.3228 12.5254C19.194 13.1248 18.3763 13.6487 17.4253 14.3815C17.014 14.6985 16.6682 14.945 16.6568 14.9296C16.6455 14.914 16.4218 14.5874 16.1597 14.2037C15.3474 13.0144 14.3815 12.2875 13.3989 12.1257C12.6608 12.0043 12.2416 12.3963 12.4145 13.0461C12.4955 13.3505 12.5981 13.4171 13.2562 13.593C13.4582 13.647 13.8074 13.8317 14.0323 14.0034C14.4515 14.3235 15.309 15.505 15.4078 15.8985L15.463 16.1184L15.0534 16.6295C14.2839 17.5898 13.6436 18.5135 13.1241 19.4127L12.605 20.3114L11.9942 19.9017C11.1455 19.3321 10.3936 19.0005 9.70699 18.8925C8.97741 18.7778 8.13694 18.8974 7.88222 19.1521C7.65974 19.3747 7.65777 19.9029 7.87864 20.147L8.03555 20.3204L8.85013 20.3205L9.66472 20.3206L10.2021 20.5767C10.6969 20.8125 11.7905 21.5702 11.9062 21.7574C11.9334 21.8014 11.8333 22.2317 11.6838 22.7136C11.3403 23.8217 11.0968 24.9542 10.9564 26.0979C10.8959 26.5905 10.8152 27.029 10.7769 27.0723C10.7379 27.1166 10.3811 27.0589 9.96216 26.9407L9.2169 26.7304L8.18691 26.7317L7.15693 26.7329L6.64892 26.9343C6.12954 27.1401 5.5 27.7151 5.5 27.9836C5.5 28.2479 5.77308 28.6484 5.99045 28.7029C6.13734 28.7398 6.41382 28.6634 6.83343 28.4699L7.45795 28.182L8.38216 28.222L9.30646 28.2619L10.0678 28.5235L10.829 28.785L10.8531 29.0985C10.9131 29.8796 11.1851 31.3954 11.4638 32.5023C11.6313 33.1674 11.7686 33.7417 11.7688 33.7787C11.7692 33.8157 11.632 33.8459 11.4639 33.8459C11.0027 33.8459 9.90824 34.0747 9.33011 34.2918C7.61406 34.9365 6.60746 36.4435 7.56274 36.9376L7.81254 37.0669L8.08427 36.9721C8.23367 36.92 8.5029 36.698 8.68256 36.4787C9.23651 35.8027 10.1815 35.4345 11.6475 35.3236L12.4412 35.2636L12.7442 35.8576C13.1581 36.6691 14.0877 38.1229 14.6817 38.8875C14.9518 39.2351 15.1729 39.5512 15.1729 39.5896C15.1729 39.628 14.9009 39.8367 14.5683 40.0534C13.4213 40.8007 12.6271 41.8185 12.3999 42.8323L12.305 43.2563L12.4375 43.5127C12.681 43.9834 13.4059 44.0402 13.6236 43.6056C13.6843 43.4845 13.8423 43.1318 13.9747 42.8219L14.2155 42.2583L14.7004 41.815C14.9672 41.5713 15.4422 41.2281 15.7561 41.0526L16.3268 40.7334L17.2263 41.45C17.721 41.8441 18.6351 42.4812 19.2577 42.8656C19.8803 43.2501 20.4086 43.6136 20.4318 43.6734C20.455 43.7332 20.3336 44.0154 20.1621 44.3004C19.3857 45.5911 19.1522 46.3248 19.226 47.2433C19.283 47.9532 19.5188 48.3903 19.8666 48.4308C20.2397 48.4741 20.6355 48.2819 20.6407 48.0548C20.643 47.9499 20.6764 47.475 20.7147 46.9996L20.7845 46.1351L21.1574 45.5216C21.3625 45.1842 21.6485 44.7722 21.7931 44.6061L22.0559 44.304L22.9806 44.5871C23.9845 44.8944 25.7239 45.2658 26.6126 45.3626L27.1702 45.4235L27.1154 46.0716C27.0135 47.2775 27.4704 49.3526 27.9335 49.7878C28.2473 50.0826 28.6651 50.0689 28.9351 49.755C29.1954 49.4525 29.1953 49.449 28.9141 48.5292C28.6706 47.7327 28.5428 46.5352 28.6438 45.9966C28.7301 45.5366 28.905 45.4008 29.411 45.4008C29.9651 45.4008 31.622 45.1156 32.7701 44.8227C33.2616 44.6972 33.732 44.5947 33.8153 44.5947C33.9192 44.5947 34.0144 44.7424 34.1182 45.0649C34.3186 45.6876 34.8008 46.5701 35.2772 47.186C35.9937 48.1123 36.3475 48.3302 36.8155 48.1335C37.1141 48.0079 37.2056 47.8504 37.2056 47.4619V47.2087L36.6099 46.4615C35.9674 45.6555 35.5427 44.8523 35.4571 44.2811L35.4034 43.9229L36.0973 43.5646C37.0275 43.0843 38.4254 42.1957 39.2086 41.5869L39.8477 41.09L39.9821 41.2972C40.4493 42.0177 41.5142 42.9077 42.551 43.4444C43.331 43.848 43.6633 43.8771 43.9717 43.5686C44.4483 43.0921 44.2019 42.659 43.1152 42.063C42.0296 41.4676 41.2474 40.7106 41.1035 40.116L41.0493 39.8921L41.5084 39.3546C42.1512 38.6022 43.0205 37.3418 43.5144 36.446C43.7446 36.0286 43.9497 35.6703 43.9702 35.6498C43.9907 35.6293 44.2824 35.757 44.6185 35.9337C44.9547 36.1103 45.5503 36.3453 45.9421 36.456L46.6546 36.6571L47.5354 36.6623L48.4162 36.6675L48.5877 36.456C48.8076 36.185 48.8101 35.7111 48.5927 35.5143C48.4839 35.4158 48.0408 35.306 47.3165 35.1979C46.0806 35.0136 45.3645 34.7771 44.9211 34.4068L44.6244 34.1592L44.892 33.2588C45.2123 32.1802 45.5002 30.8659 45.5776 30.1286C45.6087 29.833 45.6534 29.4982 45.6771 29.3845L45.7202 29.1779L45.8985 29.2345C46.2574 29.3485 47.8624 29.293 48.5584 29.1426C49.4451 28.951 50.196 28.5916 50.3685 28.276L50.5 28.0358L50.3487 27.7186C50.2585 27.5295 50.1114 27.3797 49.9842 27.3478C49.8669 27.3184 49.3922 27.3956 48.9292 27.5194C47.5455 27.8895 46.3524 27.9346 45.9393 27.6326L45.7863 27.5206L45.6608 26.5405C45.4934 25.2331 45.2104 23.7579 44.9958 23.0729C44.8996 22.766 44.8203 22.4496 44.8197 22.3698L44.8185 22.2247L45.2186 22.1797C46.0289 22.0883 47.7187 21.1136 48.428 20.3284L48.7593 19.9616V19.6549V19.3481L48.5233 19.1625C48.129 18.8522 47.8825 18.9213 47.1003 19.5616C46.1654 20.327 45.4412 20.6853 44.7114 20.7437L44.1468 20.7889L43.9366 20.3531C43.6121 19.6803 42.9186 18.5598 42.2246 17.5868C41.8779 17.1009 41.5942 16.6591 41.5942 16.6053C41.5942 16.5514 41.709 16.4396 41.8492 16.3568C42.6039 15.9109 43.8601 14.1748 44.1134 13.2275L44.2239 12.8142L44.0723 12.5827C43.9889 12.4555 43.8147 12.3247 43.6853 12.2922C43.2393 12.1803 43.0347 12.3489 42.5031 13.266C41.8403 14.4094 41.4502 14.8588 40.8449 15.1757L40.3477 15.4361L40.0529 15.1559C39.5093 14.6391 38.0846 13.6039 37.1033 13.0126C36.1715 12.4511 36.0293 12.3082 36.2147 12.12C36.2607 12.0732 36.4221 11.785 36.5732 11.4795C36.9534 10.7109 37.2043 9.59692 37.205 8.67351L37.2056 7.90963L37.0661 7.7106L36.9268 7.51148H36.5308H36.1349L35.9952 7.72476C35.9177 7.84308 35.8157 8.31182 35.7663 8.77724C35.6073 10.2734 35.1102 11.4578 34.5861 11.5894C34.4732 11.6177 33.8871 11.497 33.2642 11.3171C32.6488 11.1394 31.6414 10.9133 31.0257 10.8147C29.473 10.5659 29.4798 10.5677 29.5344 10.4256C29.5605 10.3573 29.6323 9.89815 29.6938 9.40514L29.8057 8.50879L29.7027 7.95469C29.646 7.64996 29.4786 7.14191 29.3306 6.8258L29.0616 6.25101L28.7479 6.11988C28.3764 5.96465 28.3474 5.96357 28.1149 6.09695ZM26.861 12.0913C20.0232 12.7434 14.3768 17.6307 12.7481 24.3064C12.5218 25.2339 12.3064 27.0546 12.3084 28.0231C12.3224 34.8982 16.7697 41.0129 23.3207 43.1643C23.9141 43.3591 24.8727 43.607 25.4511 43.7151L26.5027 43.9117L28.2044 43.9123L29.9061 43.9128L30.8018 43.7586C33.4648 43.2998 35.8829 42.2558 37.9669 40.6653C38.71 40.0981 40.1785 38.6682 40.7492 37.9562C44.2685 33.5653 45.2153 27.5402 43.2033 22.3392C40.9753 16.5798 35.8521 12.7159 29.6056 12.084C28.5631 11.9785 28.0279 11.9799 26.861 12.0913ZM29.4461 15.23C29.249 15.3254 29.0553 15.6563 29.0553 15.8977C29.0553 16.1135 29.5551 16.5583 29.7976 16.5583C29.9179 16.5583 30.1225 16.4748 30.2523 16.3727L30.4883 16.1871V15.8509V15.5147L30.2811 15.3199C30.0597 15.1121 29.757 15.0794 29.4461 15.23ZM20.1054 17.6901C19.8711 17.9879 19.8712 18.1743 20.1059 18.4726C20.3826 18.8244 20.5731 18.9 20.898 18.7866C21.2221 18.6737 21.3528 18.4726 21.3528 18.087C21.3528 17.7003 21.0766 17.4541 20.6428 17.4541H20.291L20.1054 17.6901ZM35.3817 18.4068C34.7055 19.0831 35.7089 20.0017 36.4219 19.359C36.6561 19.1479 36.6241 18.6558 36.3588 18.3906C36.0651 18.0968 35.6854 18.103 35.3817 18.4068ZM28.0081 20.4985C27.7177 20.6183 27.5024 20.9937 27.5699 21.2625C27.7125 21.8309 28.39 22.0415 28.771 21.6359C29.2836 21.0902 28.6962 20.2145 28.0081 20.4985ZM21.9318 23.5406C21.6796 23.6429 21.5426 23.8275 21.4776 24.1522L21.4224 24.4288L21.6522 24.6588C22.1273 25.134 22.8754 24.8637 22.8754 24.2168C22.8754 23.9182 22.6307 23.545 22.4349 23.545C22.3897 23.545 22.2989 23.5274 22.2334 23.5059C22.1677 23.4843 22.032 23.5 21.9318 23.5406ZM39.3833 23.5479C38.9636 23.7123 38.8606 24.371 39.2041 24.6939C39.4605 24.9347 39.8904 24.9468 40.1692 24.721L40.3762 24.5534V24.2264C40.3762 23.71 39.8636 23.3598 39.3833 23.5479ZM30.7123 23.9525C30.0592 24.1315 28.9082 24.7306 28.3171 25.1991C27.3506 25.9651 26.6191 27.0867 26.2683 28.3403L26.0688 29.0538L26.0666 29.9943C26.064 31.1149 26.2235 31.8026 26.7213 32.8158C27.4993 34.4 29.0432 35.6713 30.757 36.1391C31.557 36.3574 33.1049 36.3534 33.8917 36.131C36.0648 35.5166 37.616 34.0448 38.3277 31.922L38.5672 31.2073L38.5302 29.8618L38.493 28.5163L38.2017 27.779C37.4649 25.9142 35.7421 24.39 33.8733 23.9493C33.1628 23.7818 31.3282 23.7836 30.7123 23.9525ZM31.0351 25.3887C29.4763 25.8079 27.9711 27.4019 27.6336 28.991C27.2841 30.6362 27.768 32.205 29.0078 33.4461C30.0449 34.4843 31.2343 34.9176 32.73 34.8023C33.9616 34.7073 34.9912 34.1953 35.8758 33.238C36.7203 32.3241 37.1131 31.3089 37.115 30.0355C37.117 28.6352 36.7277 27.7212 35.6848 26.6783C34.9476 25.941 34.383 25.5946 33.5751 25.3842C32.9212 25.2139 31.6769 25.216 31.0351 25.3887ZM15.6776 25.97L15.4416 26.1556V26.5009V26.8462L15.6776 27.0318C15.9859 27.2744 16.27 27.2668 16.5711 27.0077C16.8843 26.7383 16.8986 26.3199 16.6052 26.0076C16.3479 25.7336 15.9962 25.7193 15.6776 25.97ZM30.7122 26.9742C30.2032 27.2188 29.6657 27.7703 29.4511 28.268C29.3701 28.4558 29.3022 28.8646 29.2982 29.1881L29.291 29.7703L29.4765 30.1843C29.7267 30.7428 30.2293 31.2805 30.7138 31.5084L31.1133 31.6962H31.7253C32.0619 31.6962 32.5335 31.6292 32.7734 31.5475C33.3096 31.3648 33.9079 30.7746 34.1199 30.2194L34.2726 29.8194L34.2329 29.0615L34.1931 28.3034L33.8767 27.8268C33.6553 27.4933 33.4189 27.2732 33.09 27.0942L32.6199 26.8383L31.89 26.7987L31.16 26.7591L30.7122 26.9742ZM31.3226 28.3292C30.7336 28.5951 30.58 29.3859 31.0158 29.9081L31.2748 30.2182H31.7845H32.2943L32.5556 29.9257L32.817 29.6331V29.2329V28.8327L32.5707 28.557L32.3244 28.2814L31.9661 28.2409C31.7599 28.2176 31.4868 28.2551 31.3226 28.3292ZM20.3676 29.6602C20.2444 29.7237 20.0936 29.8801 20.0324 30.0078L19.921 30.24L20.0194 30.522C20.2739 31.2523 21.3528 31.0641 21.3528 30.2895C21.3528 29.7633 20.8235 29.4251 20.3676 29.6602ZM18.6579 35.0884L18.4509 35.256V35.5765C18.4509 36.1486 18.9682 36.4802 19.4618 36.2248C19.7487 36.0765 19.8302 35.9251 19.8302 35.5404C19.8302 34.9912 19.1174 34.7163 18.6579 35.0884ZM23.3954 38.7834C23.0942 38.8959 22.9187 39.3557 23.0475 39.6946C23.2146 40.134 23.7572 40.2488 24.162 39.9303L24.398 39.7447V39.4476C24.398 38.9053 23.9188 38.5878 23.3954 38.7834ZM30.8767 39.6213C30.2588 40.0541 30.8738 41.1117 31.5859 40.8409C32.025 40.674 32.1657 40.0022 31.8318 39.6681C31.6186 39.455 31.1471 39.4318 30.8767 39.6213Z" fill="black"/>
</svg>
