<svg width="56" height="56" viewBox="0 0 56 56" fill="none" xmlns="http://www.w3.org/2000/svg">
<path fill-rule="evenodd" clip-rule="evenodd" d="M33.329 8.1113C31.5887 8.42166 29.9391 9.21888 28.8088 10.2958L28.3858 10.6989V10.9235V11.1481L29.6733 12.4232L30.9609 13.6983H24.7197H18.4786L18.2693 13.8602L18.06 14.0221V14.2763C18.06 14.441 18.1248 14.5903 18.2438 14.7004L18.4277 14.8703H27.4215H36.4153L36.3712 15.1242C36.3469 15.2639 35.5408 22.3401 34.5799 30.8491C33.619 39.3581 32.8135 46.4343 32.79 46.574L32.7471 46.828H29.4255H26.1038L25.8945 46.9899L25.6852 47.1518V47.414V47.6761L25.8945 47.838L26.1038 48H29.7821H33.4603L33.6669 47.8242L33.8734 47.6484L35.4163 34.0136C36.2649 26.5145 36.9811 20.2247 37.0079 20.0362L37.0565 19.6934L38.6629 21.2668L40.2692 22.8402H40.5002H40.7311L41.1645 22.3909C42.5055 21.0005 43.3459 19.0117 43.4527 16.9756L43.5 16.0727L43.3647 15.2769C42.882 12.4369 41.1722 10.1428 38.5924 8.87375C37.0559 8.11794 34.9791 7.81712 33.329 8.1113ZM33.417 9.2767C32.6641 9.41805 32.1183 9.59885 31.4438 9.93023C30.8504 10.2218 30.0196 10.7501 29.9298 10.8931C29.8999 10.9408 29.9674 11.0703 30.0798 11.181L30.2844 11.3822L30.7597 11.0541C31.3933 10.617 32.2559 10.2224 33.0324 10.0146L33.6678 9.84451L34.7798 9.84576L35.8918 9.84694L36.6067 10.0588C36.9999 10.1753 37.6432 10.4353 38.0364 10.6366L38.7513 11.0026L39.5538 11.7839C40.5989 12.8013 41.0873 13.6251 41.4612 15.0003L41.6065 15.5345L41.5998 16.6284L41.5931 17.7223L41.3828 18.4096C41.1398 19.2033 40.8121 19.8762 40.3552 20.5194L40.0334 20.9725L40.2379 21.1737C40.3504 21.2843 40.4821 21.3508 40.5305 21.3213C40.8873 21.1044 41.795 19.3851 42.0592 18.4255L42.2314 17.8004L42.2356 16.6284L42.2399 15.4563L42.1054 14.9299C41.7422 13.508 41.0796 12.3442 40.0672 11.3499C39.0726 10.3731 37.9556 9.74544 36.5786 9.38953C35.7883 9.18528 34.2047 9.12879 33.417 9.2767ZM33.8059 11.0451C32.9315 11.1992 32.0788 11.5538 31.4158 12.039L31.1496 12.2338L31.8908 12.9661L32.6321 13.6983H34.9107C36.164 13.6983 37.2473 13.7201 37.318 13.7468C37.3887 13.7735 37.4975 13.8922 37.5597 14.0106L37.6728 14.2258L37.4413 16.2084L37.2099 18.1911L38.1791 19.1518L39.1484 20.1125L39.3641 19.8612C39.6615 19.5147 40.1028 18.6054 40.2695 17.9957C40.4591 17.3024 40.4638 15.8691 40.2787 15.1828C40.2034 14.9035 39.9909 14.3761 39.8066 14.0108L39.4714 13.3467L38.7539 12.6408L38.0364 11.935L37.3613 11.6057C36.9899 11.4246 36.4716 11.2214 36.2095 11.1542C35.6209 11.0034 34.3657 10.9464 33.8059 11.0451ZM12.695 13.8901C12.5878 13.9956 12.5 14.1365 12.5 14.2034C12.5 14.3973 16.2323 47.3167 16.2766 47.5136C16.2986 47.6114 16.3872 47.7608 16.4734 47.8457L16.6303 48H20.2336H23.8369L24.0462 47.838L24.2555 47.6761V47.4219C24.2555 47.2576 24.1908 47.108 24.0726 46.9988L23.8897 46.8298L20.6373 46.8093L17.3849 46.7889L15.5835 30.9663C14.5927 22.2639 13.7796 15.0823 13.7765 15.007L13.7709 14.8703H15.0279H16.2849L16.4576 14.6895C16.7019 14.4336 16.6857 14.065 16.421 13.8602L16.2117 13.6983H14.5509H12.8899L12.695 13.8901ZM16.3126 22.4495C16.0985 22.6601 16.1027 23.0831 16.3209 23.2774L16.4881 23.4262H17.5591H18.6301L18.7819 23.2417C18.9786 23.0028 18.9743 22.7558 18.7691 22.4991L18.6045 22.2932H17.5379H16.4714L16.3126 22.4495ZM16.3264 24.193C16.0821 24.4489 16.0983 24.8175 16.363 25.0223L16.5723 25.1843H19.6089H22.6455L22.8548 25.0223L23.064 24.8604V24.5925C23.064 24.4289 23.0023 24.264 22.9052 24.1685L22.7463 24.0122H19.6227H16.4992L16.3264 24.193ZM16.3126 26.9033C16.2176 26.9967 16.1537 27.1637 16.1537 27.3187C16.1537 27.4612 16.5842 31.6184 17.1104 36.5569L18.0671 45.536L18.2363 45.7132L18.4055 45.8903H25.0672H31.729L31.9239 45.6985C32.0312 45.593 32.1189 45.446 32.1189 45.3718C32.1189 45.2976 32.5514 41.1775 33.0798 36.2161L34.0407 27.1953L33.8854 26.9907L33.7302 26.7861L30.1056 26.7657L26.4811 26.7454L26.3214 26.9025C26.2236 26.9987 26.1618 27.1633 26.1618 27.3273V27.5952L26.3711 27.7571L26.5804 27.919H29.6674C31.3652 27.919 32.7542 27.9454 32.7541 27.9776C32.754 28.0099 32.3608 31.7225 31.8803 36.2281C31.4 40.7336 31.0069 44.487 31.0069 44.5691V44.7183H25.0895C21.8349 44.7183 19.172 44.7046 19.172 44.6878C19.172 44.6711 18.7789 40.9703 18.2985 36.464C17.818 31.9576 17.4248 28.1916 17.4248 28.0948L17.4246 27.919H20.869H24.3135L24.5228 27.7571L24.7321 27.5952V27.3273C24.7321 27.1637 24.6703 26.9987 24.5732 26.9033L24.4143 26.747H20.4429H16.4714L16.3126 26.9033ZM19.8579 29.8L19.6486 29.9619V30.2688C19.6486 30.6606 19.8654 30.8882 20.2385 30.8882H20.5108L20.6826 30.6733L20.8544 30.4585L20.8099 30.185C20.7277 29.6795 20.2587 29.4899 19.8579 29.8ZM22.1167 32.2661C21.7956 32.6676 21.9825 33.1848 22.4829 33.2799L22.7358 33.3278L22.9397 33.1273C23.3586 32.7153 23.1216 32.0602 22.5536 32.0602H22.2813L22.1167 32.2661ZM19.8579 33.0036L19.6486 33.1655V33.4724C19.6486 33.8642 19.8654 34.0918 20.2385 34.0918H20.5108L20.6754 33.8859C20.9399 33.5551 20.8411 33.0947 20.4701 32.9283C20.1979 32.8064 20.0967 32.8188 19.8579 33.0036Z" fill="black"/>
</svg>
