<svg width="43" height="56" viewBox="0 0 43 56" fill="none" xmlns="http://www.w3.org/2000/svg">
<path fill-rule="evenodd" clip-rule="evenodd" d="M28.8919 0.155821C26.4778 0.59032 24.1897 1.70643 22.6219 3.21405L22.0351 3.7784V4.09289V4.40739L23.8211 6.19243L25.6071 7.97757H16.95H8.29292L8.0026 8.20434L7.71229 8.43099V8.78684C7.71229 9.01744 7.80209 9.22648 7.96724 9.38061L8.2223 9.61843H20.6976H33.1729L33.1116 9.97395C33.078 10.1694 31.9599 20.0762 30.6269 31.9888C29.294 43.9014 28.1768 53.808 28.1441 54.0036L28.0848 54.3591H23.4773H18.8698L18.5795 54.5859L18.2892 54.8126V55.1796V55.5466L18.5795 55.7732L18.8698 56H23.9719H29.074L29.3605 55.7539L29.6469 55.5077L31.7871 36.4191C32.9642 25.9203 33.9577 17.1145 33.9948 16.8507L34.0622 16.3708L36.2904 18.5736L38.5186 20.7763H38.839H39.1593L39.7604 20.1473C41.6206 18.2007 42.7863 15.4163 42.9343 12.5658L43 11.3018L42.8124 10.1877C42.1427 6.21168 39.7711 2.99997 36.1927 1.22325C34.0615 0.165119 31.1807 -0.256035 28.8919 0.155821ZM29.0139 1.78738C27.9695 1.98527 27.2125 2.2384 26.2769 2.70232C25.4538 3.11046 24.3014 3.85016 24.1768 4.05034C24.1353 4.11707 24.2289 4.29844 24.3849 4.45334L24.6687 4.73502L25.3279 4.2758C26.2068 3.66376 27.4033 3.11133 28.4804 2.82046L29.3618 2.58232L30.9043 2.58407L32.4467 2.58571L33.4383 2.88227C33.9837 3.04537 34.8761 3.40942 35.4215 3.69121L36.413 4.2036L37.5263 5.2975C38.9758 6.72188 39.6534 7.87507 40.172 9.80045L40.3735 10.5482L40.3643 12.0797L40.355 13.6112L40.0633 14.5735C39.7262 15.6846 39.2717 16.6267 38.6379 17.5271L38.1915 18.1615L38.4752 18.4432C38.6312 18.5981 38.8139 18.6911 38.8811 18.6498C39.376 18.3461 40.635 15.9391 41.0015 14.5957L41.2404 13.7206L41.2462 12.0797L41.2521 10.4389L41.0655 9.70189C40.5617 7.7112 39.6426 6.08183 38.2383 4.68984C36.8588 3.32235 35.3094 2.44361 33.3993 1.94534C32.3032 1.65939 30.1065 1.5803 29.0139 1.78738ZM29.5533 4.26311C28.3405 4.47882 27.1577 4.97535 26.2381 5.65455L25.8688 5.92726L26.8969 6.95247L27.9251 7.97757H31.0858C32.8243 7.97757 34.3269 8.0082 34.4249 8.0455C34.5231 8.08291 34.6739 8.24908 34.7602 8.4148L34.9171 8.71607L34.596 11.4917L34.275 14.2675L35.6194 15.6125L36.9639 16.9574L37.263 16.6057C37.6757 16.1206 38.2878 14.8476 38.519 13.994C38.782 13.0234 38.7885 11.0168 38.5317 10.056C38.4273 9.66492 38.1325 8.92653 37.8768 8.41513L37.4119 7.48531L36.4167 6.49719L35.4215 5.50906L34.485 5.04798C33.9699 4.79442 33.251 4.51 32.8874 4.41592C32.0709 4.2048 30.3298 4.12495 29.5533 4.26311ZM0.270481 8.24612C0.121744 8.3938 0 8.59114 0 8.68478C0 8.95629 5.17704 55.0434 5.23852 55.319C5.26904 55.456 5.39188 55.6652 5.51154 55.784L5.72913 56H10.7272H15.7254L16.0157 55.7732L16.306 55.5466V55.1907C16.306 54.9607 16.2163 54.7512 16.0524 54.5983L15.7986 54.3617L11.2873 54.333L6.7758 54.3044L4.27713 32.1529C2.9028 19.9695 1.77493 9.9152 1.77063 9.80986L1.76281 9.61843H3.50645H5.24998L5.48961 9.3653C5.82851 9.00704 5.80603 8.49105 5.43882 8.20434L5.14851 7.97757H2.84473H0.540852L0.270481 8.24612ZM5.28843 20.2293C4.99151 20.5241 4.99735 21.1164 5.3 21.3883L5.53192 21.5967H7.01742H8.50302L8.71357 21.3384C8.98647 21.0039 8.98052 20.6581 8.69583 20.2988L8.46755 20.0105H6.98811H5.50878L5.28843 20.2293ZM5.3076 22.6702C4.9687 23.0285 4.99118 23.5445 5.35839 23.8312L5.6487 24.058H9.86072H14.0727L14.363 23.8312L14.6534 23.6045V23.2296C14.6534 23.0005 14.5676 22.7696 14.433 22.6359L14.2127 22.4171H9.87989H5.54723L5.3076 22.6702ZM5.28843 26.4646C5.15666 26.5954 5.06808 26.8292 5.06808 27.0462C5.06808 27.2457 5.66523 33.0657 6.39503 39.9797L7.7221 52.5504L7.95677 52.7985L8.19145 53.0465H17.432H26.6725L26.9429 52.7779C27.0916 52.6302 27.2134 52.4245 27.2134 52.3205C27.2134 52.2166 27.8132 46.4486 28.5462 39.5026L29.8791 26.8735L29.6637 26.587L29.4483 26.3005L24.4206 26.272L19.3931 26.2436L19.1717 26.4635C19.036 26.5981 18.9502 26.8286 18.9502 27.0582V27.4332L19.2405 27.6599L19.5308 27.8866H23.8128C26.1679 27.8866 28.0946 27.9236 28.0943 27.9687C28.0942 28.0139 27.5489 33.2116 26.8824 39.5193C26.2161 45.827 25.6709 51.0818 25.6709 51.1968V51.4056H17.4628C12.9484 51.4056 9.25475 51.3865 9.25475 51.3629C9.25475 51.3395 8.70949 46.1585 8.04304 39.8496C7.37659 33.5407 6.83122 28.2682 6.83111 28.1328L6.83089 27.8866H11.6087H16.3864L16.6767 27.6599L16.967 27.4332V27.0582C16.967 26.8292 16.8813 26.5982 16.7467 26.4646L16.5263 26.2458H11.0176H5.50878L5.28843 26.4646ZM10.2061 30.52L9.9158 30.7467V31.1763C9.9158 31.7248 10.2165 32.0435 10.7341 32.0435H11.1118L11.3501 31.7427L11.5884 31.4419L11.5267 31.059C11.4127 30.3513 10.7621 30.0858 10.2061 30.52ZM13.3393 33.9726C12.894 34.5346 13.1532 35.2587 13.8473 35.3918L14.198 35.459L14.4808 35.1783C15.0619 34.6014 14.7331 33.6843 13.9453 33.6843H13.5676L13.3393 33.9726ZM10.2061 35.005L9.9158 35.2317V35.6614C9.9158 36.2098 10.2165 36.5285 10.7341 36.5285H11.1118L11.34 36.2402C11.7069 35.7772 11.57 35.1326 11.0554 34.8997C10.6778 34.7289 10.5373 34.7463 10.2061 35.005Z" fill="black"/>
</svg>
