<svg width="48" height="48" viewBox="0 0 48 48" fill="none" xmlns="http://www.w3.org/2000/svg">
<path fill-rule="evenodd" clip-rule="evenodd" d="M12.7916 0.133296C12.2534 0.325689 11.785 0.745013 11.4696 1.31675L11.1888 1.82561V4.73497V7.64433L11.3576 8.08271C11.6483 8.83848 12.6022 9.56826 13.2992 9.56826H13.5907L13.5596 10.6787L13.5283 11.7891L13.2661 12.1335C12.9182 12.5905 12.616 12.7336 11.7778 12.8379C10.5132 12.9953 9.64648 13.5737 9.12374 14.609L8.84937 15.1524L8.82317 20.8033L8.79697 26.4542L5.68828 26.4812L2.57959 26.5083L2.26451 26.7336C2.0913 26.8576 1.87111 27.1321 1.77528 27.3436L1.60113 27.7283L1.59907 29.5232C1.59795 30.5104 1.62331 31.4501 1.6555 31.6116C1.68769 31.7729 1.87719 32.0909 2.07661 32.3181C2.47338 32.7701 2.5212 33.0279 2.30475 33.5474L2.17028 33.8702L1.55865 34.16C0.845204 34.498 0.360653 35.0123 0.146638 35.6585L0 36.1012L0.0264828 41.206L0.0529656 46.3107L0.255283 46.6861C0.493815 47.1286 0.952632 47.5813 1.40986 47.8253L1.73738 48H23.9623H46.1873L46.568 47.7956C47.0383 47.5431 47.5562 46.98 47.7184 46.5447C47.7855 46.3644 47.8791 46.1435 47.9263 46.0539C48.023 45.8701 48.0249 38.8512 47.9297 33.0309L47.8676 29.2299L47.6093 28.6983C47.4673 28.4059 47.1734 27.9878 46.9563 27.7692C46.5916 27.4018 45.599 26.837 45.318 26.8368C45.0436 26.8366 44.4409 26.4343 44.2256 26.1075C44.086 25.8956 43.9705 25.5485 43.9331 25.2278L43.8712 24.6982L44.2129 24.5355C44.6608 24.3224 45.2371 23.6576 45.3754 23.1947C45.4456 22.9597 45.4855 22.0613 45.4855 20.7128V18.5993L45.2247 18.0959C44.9406 17.5474 44.3358 17.062 43.724 16.8917C43.5348 16.8389 42.4271 16.7956 41.2624 16.7953L39.145 16.7947L39.1025 15.9736L39.0599 15.1524L38.8482 14.7098C38.3279 13.6215 37.4337 12.9981 36.1668 12.8404C35.3086 12.7335 35.0082 12.5927 34.6586 12.1335L34.3964 11.7891L34.3651 10.6787L34.334 9.56826L34.6459 9.5662C35.3584 9.56151 36.333 8.78884 36.6065 8.01185L36.7359 7.64433V4.73497V1.82561L36.4551 1.31281C36.1427 0.742009 35.5554 0.241224 35.0257 0.0936908C34.7945 0.0293094 31.0528 -0.00222435 23.9156 0.000121905L13.154 0.00378207L12.7916 0.133296ZM13.2303 1.68483C13.1179 1.73063 12.981 1.85217 12.9261 1.95493C12.8622 2.07478 12.8265 3.11408 12.8265 4.85322V7.56465L13.043 7.76878L13.2596 7.97281H14.2127H15.1659V6.66416V5.35551L15.3765 5.11553C15.4923 4.98348 15.7163 4.85069 15.8741 4.82037L16.1612 4.76528L16.459 5.01652L16.7568 5.26785V6.62033V7.97281H17.5522H18.3476L18.349 6.72929C18.3505 5.36377 18.4235 5.09517 18.8485 4.89076C19.1657 4.73825 19.4941 4.80817 19.7487 5.08231L19.9385 5.28653V6.62971V7.97281H20.7339H21.5293V6.79667C21.5293 5.98093 21.5709 5.52059 21.6652 5.2945C21.8891 4.75684 22.515 4.64422 22.9353 5.06579L23.1201 5.25115V6.61198V7.97281H23.9623H24.8046V6.61198V5.25115L24.9894 5.06579C25.4097 4.64422 26.0356 4.75684 26.2595 5.2945C26.3538 5.52059 26.3954 5.98093 26.3954 6.79667V7.97281H27.1908H27.9862V6.61198V5.25115L28.1711 5.06579C28.4279 4.80817 28.7677 4.74238 29.0761 4.89076C29.5012 5.09517 29.5742 5.36377 29.5757 6.72929L29.5771 7.97281H30.3725H31.1679V6.62033V5.26785L31.4657 5.01652L31.7634 4.76528L32.0505 4.82037C32.2084 4.85069 32.4324 4.98348 32.5482 5.11553L32.7588 5.35551V6.66416V7.97281H33.725H34.6912L34.8948 7.75564L35.0982 7.53837V4.80967V2.08107L34.9193 1.85949L34.7405 1.63791L24.0876 1.61979C18.0601 1.60947 13.3459 1.63781 13.2303 1.68483ZM15.1517 10.8118L15.1191 12.0553L14.8599 12.5848C14.574 13.1686 13.9846 13.7678 13.4039 14.0649C13.1965 14.1711 12.6344 14.3215 12.1546 14.3993C11.1859 14.5564 10.9201 14.7033 10.6055 15.255L10.3965 15.6216L10.3949 17.8003L10.3934 19.979L16.2655 20.0057L22.1376 20.0326L22.4719 20.1851C22.9473 20.4019 23.4716 20.8898 23.7105 21.3376L23.9156 21.7219V30.4031V39.0842L23.7343 39.4505C23.5196 39.8845 23.0487 40.3767 22.6273 40.6077L22.3247 40.7735L18.3775 40.8008L14.4303 40.828L14.3974 43.4756C14.3792 44.9317 14.3297 46.1969 14.2873 46.2872L14.2101 46.4515H20.7641H27.3181L27.2311 46.1471C27.1804 45.97 27.144 42.4841 27.144 37.8141V29.7855L27.2838 29.2472C27.4486 28.6128 27.6052 28.34 28.1198 27.7908C28.545 27.3371 29.1444 26.9953 29.8101 26.8272C30.6209 26.6224 31.1659 25.8812 31.1674 24.9808L31.1679 24.6735L30.9388 24.5862C30.5369 24.4329 29.9803 23.8471 29.7694 23.3555L29.565 22.879L29.5944 20.658L29.6239 18.4371L29.7849 18.1421C30.0086 17.7322 30.4634 17.2949 30.9214 17.0492L31.3083 16.8417L34.4198 16.8125L37.5313 16.7833V16.2222C37.5313 15.5625 37.3 15.0327 36.8816 14.7339C36.7043 14.6073 36.2906 14.4838 35.75 14.3961C35.2814 14.3201 34.7282 14.1711 34.5208 14.0649C33.9401 13.7678 33.3507 13.1686 33.0648 12.5848L32.8055 12.0553L32.773 10.8118L32.7404 9.56826H23.9623H15.1843L15.1517 10.8118ZM17.3532 11.2284C17.0186 11.2943 16.7887 11.6482 16.6188 12.359C16.5255 12.7494 16.3015 13.2958 16.092 13.6443C15.6703 14.3454 15.641 14.6189 15.9492 14.9782L16.1711 15.2368H16.5081C16.729 15.2368 16.9226 15.164 17.0695 15.0256C17.3441 14.7668 17.746 14.0395 17.9751 13.3868L18.146 12.9L21.9666 12.853L25.7871 12.8061L25.9879 12.6908C26.0982 12.6273 26.2342 12.4442 26.2899 12.2839L26.3912 11.9923L26.2605 11.6784L26.1296 11.3644L25.7712 11.2646C25.429 11.1693 17.8199 11.1366 17.3532 11.2284ZM28.5945 11.2309C28.2423 11.3163 27.9862 11.6437 27.9862 12.0084V12.351L28.2233 12.5744L28.4603 12.7977L29.3357 12.8361C30.4349 12.8843 30.8429 12.7647 31.0476 12.3343L31.1962 12.0218L31.0724 11.722C30.9001 11.305 30.5024 11.1613 29.5567 11.1746C29.1304 11.1806 28.6974 11.206 28.5945 11.2309ZM31.4559 18.6332L31.1679 18.8762V20.7791V22.682L31.3619 22.9293L31.5558 23.1766H37.5217H43.4877L43.6912 22.9594L43.8946 22.7421L43.8916 20.8243L43.8886 18.9064L43.7747 18.7574C43.712 18.6756 43.5687 18.5594 43.4563 18.4993L43.2518 18.3902H37.4978H31.7437L31.4559 18.6332ZM10.3934 24.0185V26.4613H11.0346H11.6758L11.9852 26.6725C12.7094 27.1668 12.8211 27.5538 12.8242 29.5773C12.827 31.3937 12.731 31.9002 12.3028 32.3298L11.9843 32.6492V33.062C11.9843 33.5898 12.2277 33.9077 12.8315 34.1681C13.3469 34.3906 13.9813 35.0262 14.2079 35.547L14.3584 35.8933L14.3983 37.5591L14.4382 39.225L18.1475 39.222L21.8568 39.219L22.0053 39.1047C22.0869 39.0418 22.2028 38.8981 22.2627 38.7854L22.3715 38.5803V30.3676V22.1547L22.1457 21.8914L21.9199 21.628L16.1567 21.6019L10.3934 21.5756V24.0185ZM32.7252 25.4444C32.5755 26.8801 31.6401 27.9727 30.2076 28.3849C29.5597 28.5713 29.1424 28.9024 28.9108 29.4138L28.739 29.793L28.7369 37.8479L28.7349 45.9028L29.0084 46.1771L29.2819 46.4515H37.5313H45.7806L46.0541 46.1771L46.3277 45.9028V44.9571V44.0114H40.9344H35.541L35.1697 43.8998C34.6411 43.741 33.9318 43.0689 33.7247 42.5306L33.5542 42.0874V37.5826V33.0778L33.7062 32.7425C33.9441 32.2179 34.4453 31.7074 34.9572 31.4683L35.4257 31.2496L40.8767 31.2486L46.3277 31.2477V30.5782C46.3277 30.2099 46.2785 29.7438 46.2183 29.5424C46.0664 29.0342 45.5346 28.5805 44.8643 28.3876C43.4211 27.9722 42.4993 26.901 42.3455 25.4607L42.282 24.8659H37.5337H32.7854L32.7252 25.4444ZM3.18786 29.6522V31.2477H7.16495H11.1421V29.6522V28.0568H7.16495H3.18786V29.6522ZM3.98917 33.3359C3.85245 34.3718 3.38147 35.0424 2.49125 35.4684C1.76826 35.8146 1.6613 35.9381 1.65148 36.4381L1.6438 36.8318L4.40438 36.8787L7.16495 36.9257L7.60627 37.1858C8.14426 37.503 8.49424 37.9458 8.67007 38.5318L8.80258 38.9733V40.8183V42.6634L8.65183 43.1731L8.50107 43.6829L8.06696 44.1183L7.63285 44.5536L7.12453 44.7048L6.6163 44.856H4.10661H1.59702V45.3794V45.9028L1.87055 46.1771L2.14408 46.4515H7.20884H12.2735L12.497 46.2274C12.6199 46.104 12.7465 45.8612 12.7782 45.6877C12.8099 45.5142 12.8233 43.322 12.8078 40.8162L12.7797 36.2602L12.6118 36.0034C12.5194 35.862 12.2247 35.6476 11.9567 35.5266C11.0511 35.1179 10.5045 34.3593 10.4168 33.3896L10.3674 32.8432H7.21081H4.05421L3.98917 33.3359ZM35.4076 33.0696L35.145 33.2962V37.6295V41.9629L35.4076 42.1894L35.6702 42.4159H40.9989H46.3277V37.6295V32.8432H40.9989H35.6702L35.4076 33.0696ZM0.0497839 41.0081C0.0497839 43.8213 0.061762 44.9721 0.0762667 43.5656C0.090865 42.1589 0.090865 39.8573 0.0762667 38.4507C0.061762 37.0441 0.0497839 38.195 0.0497839 41.0081ZM1.59702 40.8716V43.269L4.168 43.2413L6.73898 43.2136L6.95197 43.0001L7.16495 42.7865L7.19434 41.036C7.22625 39.13 7.20463 38.9363 6.92867 38.6595L6.74385 38.4742H4.17043H1.59702V40.8716Z" fill="black"/>
</svg>
